<svg width="24" height="24" viewBox="0 0 24 24" fill="none" xmlns="http://www.w3.org/2000/svg">
<g clip-path="url(#clip0_1721_3036)">
<path d="M23.5861 19.8628H0.413812C0.185297 19.8628 0 19.6775 0 19.449V4.55248C0 4.32397 0.185297 4.13867 0.413812 4.13867H23.5862C23.8147 4.13867 24 4.32397 24 4.55248V19.449C24 19.6776 23.8147 19.8628 23.5861 19.8628Z" fill="#F5F5F5"/>
<path d="M18.6211 4.13867H5.37988V19.8629H18.6211V4.13867Z" fill="#F5F5F5"/>
<path d="M0.413812 4.13867C0.185296 4.13867 0 4.32392 0 4.55244V19.449C0 19.6775 0.185296 19.8628 0.413812 19.8628H5.37932V4.13867H0.413812Z" fill="#FF4B55"/>
<path d="M23.5866 4.13867H18.6211V19.8628H23.5866C23.8151 19.8628 24.0004 19.6775 24.0004 19.449V4.55244C24.0004 4.32392 23.8151 4.13867 23.5866 4.13867Z" fill="#FF4B55"/>
<path d="M14.5116 13.8169L16.9671 12.4138L16.4036 12.1321C16.2456 12.0531 16.1551 11.8825 16.1785 11.7073L16.3619 10.3328L15.3223 10.6353C15.0927 10.7021 14.8544 10.5608 14.8027 10.3274L14.7031 9.87735L13.7271 11.0197C13.5917 11.178 13.334 11.0571 13.3693 10.8518L13.7861 8.42798L13.1479 8.60254C12.9615 8.65354 12.7646 8.5687 12.6737 8.39817L12.0017 7.13859V7.13672L12.0012 7.13766L12.0007 7.13672V7.13859L11.3287 8.39817C11.2377 8.56865 11.0408 8.6535 10.8544 8.60254L10.2161 8.42798L10.633 10.8518C10.6683 11.057 10.4105 11.178 10.2751 11.0197L9.29907 9.87735L9.19951 10.3274C9.14786 10.5609 8.90954 10.7021 8.6799 10.6353L7.64036 10.3328L7.82369 11.7073C7.84708 11.8824 7.75661 12.0531 7.59859 12.1321L7.03516 12.4138L9.4906 13.817C9.74495 13.9623 9.85642 14.2706 9.75381 14.5449L9.5439 15.1063L11.6479 14.9267C11.7643 14.9168 11.8634 15.0105 11.86 15.1273L11.7937 17.3794H12.2075L12.1412 15.1272C12.1378 15.0104 12.2369 14.9167 12.3533 14.9266L14.4583 15.1063L14.2484 14.5449C14.1458 14.2705 14.2573 13.9622 14.5116 13.8169Z" fill="#FF4B55"/>
</g>
<defs>
<clipPath id="clip0_1721_3036">
<rect width="24" height="24" fill="white"/>
</clipPath>
</defs>
</svg>
