<svg width="24" height="24" viewBox="0 0 24 24" fill="none" xmlns="http://www.w3.org/2000/svg">
<g clip-path="url(#clip0_1721_3044)">
<path d="M23.5861 19.8628H0.413811C0.185296 19.8628 0 19.6775 0 19.449V4.55248C0 4.32397 0.185296 4.13867 0.413811 4.13867H23.5862C23.8147 4.13867 24 4.32397 24 4.55248V19.449C23.9999 19.6776 23.8146 19.8628 23.5861 19.8628Z" fill="#FF4B55"/>
<path d="M16.5524 10.3455H13.6559V7.44897C13.6559 7.22045 13.4706 7.03516 13.2421 7.03516H10.7593C10.5308 7.03516 10.3455 7.22045 10.3455 7.44897V10.3455H7.44897C7.22045 10.3455 7.03516 10.5308 7.03516 10.7593V13.2421C7.03516 13.4706 7.22045 13.6559 7.44897 13.6559H10.3455V16.5524C10.3455 16.781 10.5308 16.9663 10.7593 16.9663H13.2421C13.4706 16.9663 13.6559 16.781 13.6559 16.5524V13.6558H16.5524C16.781 13.6558 16.9663 13.4705 16.9663 13.242V10.7592C16.9663 10.5308 16.781 10.3455 16.5524 10.3455Z" fill="#F5F5F5"/>
</g>
<defs>
<clipPath id="clip0_1721_3044">
<rect width="24" height="24" fill="white"/>
</clipPath>
</defs>
</svg>
