<svg width="24" height="24" viewBox="0 0 24 24" fill="none" xmlns="http://www.w3.org/2000/svg">
<g clip-path="url(#clip0_1721_3047)">
<path d="M23.5861 19.8628H0.413811C0.185296 19.8628 0 19.6775 0 19.449V4.55248C0 4.32397 0.185296 4.13867 0.413811 4.13867H23.5862C23.8147 4.13867 24 4.32397 24 4.55248V19.449C23.9999 19.6776 23.8146 19.8628 23.5861 19.8628Z" fill="#FF4B55"/>
<path d="M3.98457 6.59731L4.37907 7.78015L5.62594 7.78981C5.78737 7.79103 5.85431 7.99709 5.72442 8.09295L4.72139 8.83362L5.09747 10.0225C5.14613 10.1764 4.97091 10.3037 4.83956 10.2098L3.82519 9.48471L2.81082 10.2098C2.67947 10.3037 2.50426 10.1763 2.55291 10.0224L2.92899 8.83357L1.92596 8.09295C1.79607 7.99704 1.86301 7.79103 2.02444 7.78981L3.27132 7.78015L3.66582 6.59731C3.71691 6.44413 3.93352 6.44413 3.98457 6.59731Z" fill="#FFE15A"/>
<path d="M8.51186 6.88975L8.79475 7.27553L9.25127 7.13274C9.31037 7.11428 9.35898 7.18168 9.3228 7.23188L9.04333 7.62006L9.32017 8.0101C9.35603 8.06059 9.30695 8.12766 9.24798 8.10877L8.79241 7.96295L8.50699 8.3468C8.47005 8.39649 8.39107 8.37052 8.39083 8.30865L8.38872 7.83029L7.93544 7.67743C7.8768 7.6576 7.87704 7.57454 7.93586 7.55513L8.39008 7.40532L8.39542 6.92701C8.39608 6.86518 8.47525 6.83982 8.51186 6.88975Z" fill="#FFE15A"/>
<path d="M6.79034 5.73895L7.26589 5.79061L7.46876 5.35744C7.49506 5.30138 7.57756 5.31099 7.59022 5.37159L7.688 5.83978L8.16265 5.89884C8.22411 5.90648 8.24047 5.98795 8.1867 6.01875L7.77162 6.25641L7.86214 6.72609C7.87386 6.78694 7.80144 6.82762 7.75554 6.78605L7.40122 6.46472L6.98253 6.6959C6.92834 6.72586 6.86717 6.66951 6.89258 6.61303L7.08866 6.17672L6.73934 5.84991C6.69416 5.80781 6.7288 5.7323 6.79034 5.73895Z" fill="#FFE15A"/>
<path d="M7.54212 10.3741L7.25923 10.7599L6.80271 10.6171C6.7436 10.5987 6.69499 10.6661 6.73118 10.7163L7.01065 11.1044L6.7338 11.4945C6.69795 11.545 6.74702 11.612 6.80599 11.5932L7.26157 11.4473L7.54699 11.8312C7.58393 11.8809 7.66291 11.8549 7.66315 11.793L7.66526 11.3147L8.11854 11.1618C8.17722 11.142 8.17694 11.0589 8.11811 11.0395L7.6639 10.8897L7.65855 10.4114C7.6578 10.3496 7.57873 10.3242 7.54212 10.3741Z" fill="#FFE15A"/>
<path d="M9.26386 9.29364L8.78831 9.3453L8.58544 8.91213C8.55914 8.85606 8.47664 8.86567 8.46399 8.92628L8.36616 9.39447L7.8915 9.45353C7.83005 9.46117 7.81369 9.54264 7.86746 9.57344L8.28253 9.81109L8.19202 10.2808C8.1803 10.3416 8.25272 10.3823 8.29861 10.3407L8.65294 10.0194L9.07163 10.2506C9.12581 10.2805 9.18699 10.2242 9.16158 10.1677L8.9655 9.73141L9.31481 9.40459C9.36014 9.3625 9.3255 9.28698 9.26386 9.29364Z" fill="#FFE15A"/>
</g>
<defs>
<clipPath id="clip0_1721_3047">
<rect width="24" height="24" fill="white"/>
</clipPath>
</defs>
</svg>
