<svg width="24" height="24" viewBox="0 0 24 24" fill="none" xmlns="http://www.w3.org/2000/svg">
<g clip-path="url(#clip0_1721_3055)">
<path d="M0.152625 19.7623L12 12.0003L0.152625 4.23828C0.0614531 4.31417 0 4.42414 0 4.55202V19.4486C0 19.5765 0.0614531 19.6865 0.152625 19.7623Z" fill="#41479B"/>
<path d="M0.152344 19.762C0.224062 19.8217 0.312891 19.8621 0.413484 19.8621H23.5859C23.8144 19.8621 23.9997 19.6768 23.9997 19.4482V12H11.9997L0.152344 19.762Z" fill="#FF4B55"/>
<path d="M0.152344 4.2387C0.224062 4.17898 0.312891 4.13867 0.413484 4.13867H23.5859C23.8144 4.13867 23.9997 4.32397 23.9997 4.55248V12.0007H11.9997L0.152344 4.2387Z" fill="#F5F5F5"/>
</g>
<defs>
<clipPath id="clip0_1721_3055">
<rect width="24" height="24" fill="white"/>
</clipPath>
</defs>
</svg>
