<svg width="24" height="24" viewBox="0 0 24 24" fill="none" xmlns="http://www.w3.org/2000/svg">
<g clip-path="url(#clip0_1721_3068)">
<path d="M23.9999 9.38009H0V4.55248C0 4.32397 0.185296 4.13867 0.413812 4.13867H23.5862C23.8147 4.13867 24 4.32397 24 4.55248L23.9999 9.38009Z" fill="#FF4B55"/>
<path d="M23.5861 19.8625H0.413812C0.185296 19.8625 0 19.6772 0 19.4486V14.6211H23.9999V19.4486C23.9999 19.6772 23.8146 19.8625 23.5861 19.8625Z" fill="#464655"/>
<path d="M23.9999 9.37891H0V14.62H23.9999V9.37891Z" fill="#F5F5F5"/>
<path d="M13.3212 11.1835C13.3212 10.9784 13.1201 10.8334 12.9255 10.8983L12.5597 11.0203L12.4709 10.4838C12.4178 10.1639 12.1436 9.93164 11.819 9.93164H11.4769L11.1191 10.3721H11.5929L11.4603 11.027L11.0744 10.8984C10.8797 10.8335 10.6787 10.9784 10.6787 11.1836V13.409L11.2113 12.8763L10.9604 13.6292H10.6788V14.0696H13.3212V13.6292H13.0396L12.7886 12.8763L13.3213 13.409V11.1835H13.3212ZM11.7798 13.6291H11.4248L11.6689 12.9771L11.7798 13.1187V13.6291ZM12.2201 13.6291V13.1187L12.3311 12.9771L12.5752 13.6291H12.2201ZM12 12.8309C12 12.8309 11.3187 12.3698 11.3463 11.5096C11.3463 11.5096 11.7661 11.4408 12 11.0692C12.2339 11.4408 12.6537 11.5096 12.6537 11.5096C12.6813 12.3698 12 12.8309 12 12.8309Z" fill="#F0C727"/>
</g>
<defs>
<clipPath id="clip0_1721_3068">
<rect width="24" height="24" fill="white"/>
</clipPath>
</defs>
</svg>
