<svg width="24" height="24" viewBox="0 0 24 24" fill="none" xmlns="http://www.w3.org/2000/svg">
<g clip-path="url(#clip0_1721_3476)">
<path d="M23.5861 19.8628H0.413812C0.185297 19.8628 0 19.6775 0 19.449V4.55248C0 4.32397 0.185297 4.13867 0.413812 4.13867H23.5862C23.8147 4.13867 24 4.32397 24 4.55248V19.449C24 19.6776 23.8147 19.8628 23.5861 19.8628Z" fill="#41479B"/>
<path d="M12.1681 5.93893L12.334 6.43641L12.8584 6.44049C12.9263 6.44101 12.9545 6.52763 12.8998 6.56799L12.478 6.87952L12.6361 7.37949C12.6566 7.44418 12.5829 7.4978 12.5277 7.45829L12.1011 7.15332L11.6744 7.45829C11.6192 7.49775 11.5455 7.44422 11.566 7.37949L11.7241 6.87952L11.3023 6.56799C11.2476 6.52763 11.2758 6.44101 11.3437 6.44049L11.8681 6.43641L12.034 5.93893C12.0554 5.87452 12.1466 5.87452 12.1681 5.93893Z" fill="#FFE15A"/>
<path d="M12.1681 16.6206L12.334 17.1181L12.8584 17.1221C12.9263 17.1226 12.9545 17.2093 12.8998 17.2496L12.478 17.5612L12.6361 18.0611C12.6566 18.1258 12.5829 18.1794 12.5277 18.1399L12.1011 17.835L11.6744 18.1399C11.6192 18.1794 11.5455 18.1259 11.566 18.0611L11.7241 17.5612L11.3023 17.2496C11.2476 17.2093 11.2758 17.1226 11.3437 17.1221L11.8681 17.1181L12.034 16.6206C12.0554 16.5562 12.1466 16.5562 12.1681 16.6206Z" fill="#FFE15A"/>
<path d="M17.5079 11.2788L17.6739 11.7763L18.1982 11.7803C18.2662 11.7809 18.2943 11.8675 18.2397 11.9078L17.8178 12.2194L17.976 12.7193C17.9965 12.784 17.9228 12.8376 17.8675 12.7981L17.4409 12.4932L17.0143 12.7981C16.9591 12.8376 16.8853 12.7841 16.9058 12.7193L17.064 12.2194L16.6421 11.9078C16.5875 11.8675 16.6156 11.7809 16.6835 11.7803L17.2079 11.7763L17.3739 11.2788C17.3953 11.2144 17.4865 11.2144 17.5079 11.2788Z" fill="#FFE15A"/>
<path d="M6.82726 11.2788L6.9932 11.7763L7.51759 11.7803C7.58551 11.7809 7.61364 11.8675 7.55903 11.9078L7.13715 12.2194L7.29531 12.7193C7.31579 12.784 7.24211 12.8376 7.18684 12.7981L6.76023 12.4932L6.33362 12.7981C6.2784 12.8376 6.20467 12.7841 6.22515 12.7193L6.38331 12.2194L5.96144 11.9078C5.90683 11.8675 5.93495 11.7809 6.00287 11.7803L6.52726 11.7763L6.6932 11.2788C6.71467 11.2144 6.80584 11.2144 6.82726 11.2788Z" fill="#FFE15A"/>
<path d="M7.62902 8.48971L7.79496 8.98719L8.31935 8.99127C8.38727 8.99179 8.41539 9.07841 8.36078 9.11877L7.93891 9.4303L8.09707 9.93027C8.11755 9.99496 8.04386 10.0486 7.9886 10.0091L7.56199 9.7041L7.13538 10.0091C7.08016 10.0485 7.00643 9.99501 7.02691 9.93027L7.18507 9.4303L6.76319 9.11877C6.70858 9.07841 6.73671 8.99179 6.80463 8.99127L7.32902 8.98719L7.49496 8.48971C7.51643 8.4253 7.6075 8.4253 7.62902 8.48971Z" fill="#FFE15A"/>
<path d="M16.879 13.8315L17.045 14.329L17.5693 14.3331C17.6373 14.3336 17.6654 14.4202 17.6108 14.4606L17.1889 14.7721L17.3471 15.2721C17.3676 15.3368 17.2939 15.3904 17.2386 15.3509L16.812 15.0459L16.3854 15.3509C16.3302 15.3903 16.2564 15.3368 16.2769 15.2721L16.4351 14.7721L16.0132 14.4606C15.9586 14.4202 15.9867 14.3336 16.0546 14.3331L16.579 14.329L16.745 13.8315C16.7664 13.7671 16.8576 13.7671 16.879 13.8315Z" fill="#FFE15A"/>
<path d="M14.9239 6.53659L15.0899 7.03407L15.6143 7.03815C15.6822 7.03866 15.7103 7.12529 15.6557 7.16565L15.2338 7.47718L15.392 7.97714C15.4125 8.04183 15.3388 8.09546 15.2835 8.05594L14.8569 7.75097L14.4303 8.05594C14.3751 8.09541 14.3013 8.04188 14.3218 7.97714L14.48 7.47718L14.0581 7.16565C14.0035 7.12529 14.0316 7.03866 14.0996 7.03815L14.6239 7.03407L14.7899 6.53659C14.8113 6.47218 14.9024 6.47218 14.9239 6.53659Z" fill="#FFE15A"/>
<path d="M9.5841 15.7866L9.75003 16.2841L10.2744 16.2881C10.3423 16.2887 10.3705 16.3753 10.3159 16.4156L9.89399 16.7272L10.0521 17.2271C10.0726 17.2918 9.99894 17.3455 9.94367 17.3059L9.51707 17.001L9.09046 17.3059C9.03524 17.3454 8.9615 17.2919 8.98199 17.2271L9.14015 16.7272L8.71827 16.4156C8.66366 16.3753 8.69179 16.2887 8.75971 16.2881L9.2841 16.2841L9.45003 15.7866C9.4715 15.7222 9.56258 15.7222 9.5841 15.7866Z" fill="#FFE15A"/>
<path d="M16.745 8.48971L16.579 8.98719L16.0546 8.99127C15.9867 8.99179 15.9586 9.07841 16.0132 9.11877L16.4351 9.4303L16.2769 9.93027C16.2564 9.99496 16.3301 10.0486 16.3854 10.0091L16.812 9.7041L17.2386 10.0091C17.2938 10.0485 17.3676 9.99501 17.3471 9.93027L17.1889 9.4303L17.6108 9.11877C17.6654 9.07841 17.6373 8.99179 17.5693 8.99127L17.045 8.98719L16.879 8.48971C16.8576 8.4253 16.7664 8.4253 16.745 8.48971Z" fill="#FFE15A"/>
<path d="M7.49496 13.8315L7.32902 14.329L6.80463 14.3331C6.73671 14.3336 6.70858 14.4202 6.76319 14.4606L7.18507 14.7721L7.02691 15.2721C7.00643 15.3368 7.08011 15.3904 7.13538 15.3509L7.56199 15.0459L7.9886 15.3509C8.04382 15.3903 8.11755 15.3368 8.09707 15.2721L7.93891 14.7721L8.36078 14.4606C8.41539 14.4202 8.38727 14.3336 8.31935 14.3331L7.79496 14.329L7.62902 13.8315C7.6075 13.7671 7.51643 13.7671 7.49496 13.8315Z" fill="#FFE15A"/>
<path d="M9.45003 6.53659L9.2841 7.03407L8.75971 7.03815C8.69179 7.03866 8.66366 7.12529 8.71827 7.16565L9.14015 7.47718L8.98199 7.97714C8.9615 8.04183 9.03519 8.09546 9.09046 8.05594L9.51707 7.75097L9.94367 8.05594C9.99889 8.09541 10.0726 8.04188 10.0521 7.97714L9.89399 7.47718L10.3159 7.16565C10.3705 7.12529 10.3423 7.03866 10.2744 7.03815L9.75003 7.03407L9.5841 6.53659C9.56258 6.47218 9.4715 6.47218 9.45003 6.53659Z" fill="#FFE15A"/>
<path d="M14.7899 15.7866L14.6239 16.2841L14.0996 16.2881C14.0316 16.2887 14.0035 16.3753 14.0581 16.4156L14.48 16.7272L14.3218 17.2271C14.3013 17.2918 14.375 17.3455 14.4303 17.3059L14.8569 17.001L15.2835 17.3059C15.3387 17.3454 15.4125 17.2919 15.392 17.2271L15.2338 16.7272L15.6557 16.4156C15.7103 16.3753 15.6822 16.2887 15.6143 16.2881L15.0899 16.2841L14.9239 15.7866C14.9024 15.7222 14.8113 15.7222 14.7899 15.7866Z" fill="#FFE15A"/>
</g>
<defs>
<clipPath id="clip0_1721_3476">
<rect width="24" height="24" fill="white"/>
</clipPath>
</defs>
</svg>
