<svg width="24" height="24" viewBox="0 0 24 24" fill="none" xmlns="http://www.w3.org/2000/svg">
<g clip-path="url(#clip0_1721_3082)">
<path d="M23.5861 19.8628H0.413811C0.185296 19.8628 0 19.6775 0 19.449V4.55248C0 4.32397 0.185296 4.13867 0.413811 4.13867H23.5862C23.8147 4.13867 24 4.32397 24 4.55248V19.449C23.9999 19.6776 23.8146 19.8628 23.5861 19.8628Z" fill="#F5F5F5"/>
<path d="M23.9999 10.7593H13.2414V4.13867H10.7586V10.7593H0V13.2421H10.7586V19.8628H13.2414V13.2421H23.9999V10.7593Z" fill="#FF4B55"/>
<path d="M7.03487 6.88262C6.62499 6.92383 6.22346 6.96512 5.82137 7.00647C5.86271 6.60433 5.90396 6.2028 5.94526 5.79297C5.56937 5.84158 5.19011 5.84158 4.81422 5.79297C4.85542 6.2028 4.89672 6.60437 4.93811 7.00647C4.53597 6.96517 4.13439 6.92387 3.72461 6.88262C3.77322 7.25847 3.77322 7.63778 3.72461 8.01362C4.13448 7.97242 4.53601 7.93112 4.93811 7.88978C4.89676 8.29192 4.85547 8.69345 4.81422 9.10328C5.19011 9.05467 5.56937 9.05467 5.94526 9.10328C5.90406 8.69345 5.86271 8.29187 5.82137 7.88978C6.22351 7.93108 6.62504 7.97237 7.03487 8.01362C6.98631 7.63778 6.98631 7.25842 7.03487 6.88262Z" fill="#FF4B55"/>
<path d="M20.2761 6.88262C19.8662 6.92383 19.4647 6.96512 19.0626 7.00647C19.1039 6.60433 19.1452 6.2028 19.1865 5.79297C18.8106 5.84158 18.4313 5.84158 18.0554 5.79297C18.0966 6.2028 18.1379 6.60437 18.1793 7.00647C17.7772 6.96517 17.3756 6.92387 16.9658 6.88262C17.0144 7.25847 17.0144 7.63778 16.9658 8.01362C17.3757 7.97242 17.7772 7.93112 18.1793 7.88978C18.138 8.29192 18.0967 8.69345 18.0554 9.10328C18.4313 9.05467 18.8106 9.05467 19.1865 9.10328C19.1453 8.69345 19.1039 8.29187 19.0626 7.88978C19.4647 7.93108 19.8663 7.97237 20.2761 8.01362C20.2275 7.63778 20.2275 7.25842 20.2761 6.88262Z" fill="#FF4B55"/>
<path d="M7.03487 15.9861C6.62499 16.0273 6.22346 16.0686 5.82137 16.11C5.86271 15.7078 5.90396 15.3063 5.94526 14.8965C5.56937 14.9451 5.19011 14.9451 4.81422 14.8965C4.85542 15.3063 4.89672 15.7079 4.93811 16.11C4.53597 16.0687 4.13439 16.0274 3.72461 15.9861C3.77322 16.362 3.77322 16.7413 3.72461 17.1171C4.13448 17.0759 4.53601 17.0346 4.93811 16.9933C4.89676 17.3954 4.85547 17.797 4.81422 18.2068C5.19011 18.1582 5.56937 18.1582 5.94526 18.2068C5.90406 17.797 5.86271 17.3954 5.82137 16.9933C6.22351 17.0346 6.62504 17.0759 7.03487 17.1171C6.98631 16.7413 6.98631 16.362 7.03487 15.9861Z" fill="#FF4B55"/>
<path d="M20.2761 15.9861C19.8662 16.0273 19.4647 16.0686 19.0626 16.11C19.1039 15.7078 19.1452 15.3063 19.1865 14.8965C18.8106 14.9451 18.4313 14.9451 18.0554 14.8965C18.0966 15.3063 18.1379 15.7079 18.1793 16.11C17.7772 16.0687 17.3756 16.0274 16.9658 15.9861C17.0144 16.362 17.0144 16.7413 16.9658 17.1171C17.3757 17.0759 17.7772 17.0346 18.1793 16.9933C18.138 17.3954 18.0967 17.797 18.0554 18.2068C18.4313 18.1582 18.8106 18.1582 19.1865 18.2068C19.1453 17.797 19.1039 17.3954 19.0626 16.9933C19.4647 17.0346 19.8663 17.0759 20.2761 17.1171C20.2275 16.7413 20.2275 16.362 20.2761 15.9861Z" fill="#FF4B55"/>
</g>
<defs>
<clipPath id="clip0_1721_3082">
<rect width="24" height="24" fill="white"/>
</clipPath>
</defs>
</svg>
