<svg width="24" height="24" viewBox="0 0 24 24" fill="none" xmlns="http://www.w3.org/2000/svg">
<g clip-path="url(#clip0_1721_3161)">
<path d="M23.5861 19.8628H0.413812C0.185296 19.8628 0 19.6775 0 19.449V4.55248C0 4.32397 0.185296 4.13867 0.413812 4.13867H23.5862C23.8147 4.13867 24 4.32397 24 4.55248V19.449C23.9999 19.6776 23.8147 19.8628 23.5861 19.8628Z" fill="#41479B"/>
<path d="M24 7.03516H0V16.9661H24V7.03516Z" fill="#F5F5F5"/>
<path d="M14.1505 11.9995L15.2255 10.1376H13.0756L12.0004 8.27539L10.9253 10.1376H8.77539L9.85037 11.9995L8.77539 13.8614H10.9253L12.0004 15.7236L13.0756 13.8614H15.2255L14.1505 11.9995ZM14.1708 10.7465L13.799 11.3906L13.4271 10.7465H14.1708ZM13.4474 11.9995L12.724 13.2525H11.2768L10.5534 11.9995L11.2769 10.7465H12.724L13.4474 11.9995ZM12.0004 9.4933L12.3724 10.1376H11.6284L12.0004 9.4933ZM9.83003 10.7465H10.5737L10.2018 11.3906L9.83003 10.7465ZM9.83003 13.2525L10.2019 12.6084L10.5737 13.2525H9.83003ZM12.0004 14.5057L11.6284 13.8614H12.3724L12.0004 14.5057ZM13.799 12.6084L14.1708 13.2525H13.4272L13.799 12.6084Z" fill="#41479B"/>
</g>
<defs>
<clipPath id="clip0_1721_3161">
<rect width="24" height="24" fill="white"/>
</clipPath>
</defs>
</svg>
