<svg width="24" height="24" viewBox="0 0 24 24" fill="none" xmlns="http://www.w3.org/2000/svg">
<g clip-path="url(#clip0_1721_3248)">
<path d="M23.5861 19.8628H0.413812C0.185297 19.8628 0 19.6775 0 19.449V4.55248C0 4.32397 0.185297 4.13867 0.413812 4.13867H23.5862C23.8147 4.13867 24 4.32397 24 4.55248V19.449C24 19.6776 23.8147 19.8628 23.5861 19.8628Z" fill="#F5F5F5"/>
<path d="M11.9998 16.5523C14.5135 16.5523 16.5513 14.5145 16.5513 12.0008C16.5513 9.48702 14.5135 7.44922 11.9998 7.44922C9.48604 7.44922 7.44824 9.48702 7.44824 12.0008C7.44824 14.5145 9.48604 16.5523 11.9998 16.5523Z" fill="#FF4B55"/>
</g>
<defs>
<clipPath id="clip0_1721_3248">
<rect width="24" height="24" fill="white"/>
</clipPath>
</defs>
</svg>
