<svg width="24" height="24" viewBox="0 0 24 24" fill="none" xmlns="http://www.w3.org/2000/svg">
<g clip-path="url(#clip0_1721_3294)">
<path d="M23.5862 4.13867H0.413812C0.185297 4.13867 0 4.32392 0 4.55244V19.4489C0 19.6775 0.185297 19.8628 0.413812 19.8628H23.5862C23.8147 19.8628 24 19.6775 24 19.4489V4.55244C24 4.32392 23.8147 4.13867 23.5862 4.13867Z" fill="#82C3D2"/>
<path d="M2.78972 6.02117C2.75227 5.86259 2.74294 5.80414 2.8141 5.73303C2.84879 5.69834 2.84879 5.64214 2.8141 5.60745C2.77941 5.57277 2.72321 5.57277 2.68852 5.60745C2.54452 5.7515 2.57888 5.90098 2.61615 6.05928C2.50261 6.0222 2.38487 6.04972 2.32177 6.12931C2.29046 6.16901 2.2299 6.28039 2.34338 6.45823C2.36977 6.49953 2.42433 6.51167 2.46601 6.48551C2.5074 6.45912 2.51944 6.40414 2.49305 6.36289C2.45049 6.2959 2.44922 6.25461 2.46113 6.23951C2.47519 6.22165 2.51879 6.21223 2.56444 6.2284C2.59393 6.23862 2.66246 6.27401 2.66246 6.38089C2.66246 6.46625 2.62299 6.54448 2.55418 6.5953C2.48522 6.64629 2.39597 6.66069 2.30996 6.63397C2.20374 6.60153 2.12954 6.48964 2.12954 6.36181C2.12954 6.27036 2.14913 6.17792 2.18513 6.09692C2.19085 6.08497 2.3266 5.80377 2.36157 5.69895C2.43071 5.49163 2.36044 5.38738 2.31249 5.34383C2.24832 5.28538 2.15452 5.2708 2.0738 5.30619C2.06152 5.31163 2.0514 5.3195 2.04076 5.32681C2.03012 5.31945 2.01994 5.31163 2.00771 5.30619C1.92704 5.2708 1.83329 5.28538 1.76902 5.34383C1.72107 5.38738 1.6508 5.49167 1.71994 5.69895C1.75491 5.80377 1.89062 6.08497 1.89512 6.09434C1.93229 6.17797 1.95193 6.2704 1.95193 6.36186C1.95193 6.48973 1.87777 6.60158 1.77151 6.63401C1.68516 6.66069 1.59619 6.64648 1.52729 6.59534C1.45848 6.54448 1.41901 6.46629 1.41901 6.38094C1.41901 6.27406 1.48754 6.23872 1.51702 6.22845C1.56282 6.21233 1.60618 6.22166 1.62034 6.23956C1.63224 6.25466 1.63098 6.29595 1.58841 6.36294C1.56202 6.40423 1.57407 6.45922 1.61546 6.48556C1.65718 6.51195 1.71193 6.49962 1.73809 6.45828C1.85152 6.28044 1.79101 6.16911 1.75969 6.12936C1.69655 6.04976 1.57885 6.02225 1.46532 6.05933C1.50263 5.90112 1.53694 5.75155 1.39295 5.6075C1.35826 5.57281 1.30205 5.57281 1.26737 5.6075C1.23268 5.64219 1.23268 5.69839 1.26737 5.73308C1.33848 5.80419 1.32924 5.86264 1.29174 6.02122C1.26924 6.11623 1.2413 6.23473 1.2413 6.3808C1.2413 6.47797 1.27548 6.57092 1.33295 6.64728H1.33009C1.28101 6.64728 1.24126 6.68698 1.24126 6.73611C1.24126 6.78519 1.28096 6.82493 1.33009 6.82493H1.33295C1.27548 6.90129 1.2413 6.9942 1.2413 7.09137C1.2413 7.23743 1.26924 7.35593 1.2917 7.451C1.32915 7.60957 1.33848 7.66803 1.26732 7.73914C1.23263 7.77382 1.23263 7.83003 1.26732 7.86471C1.28466 7.88206 1.3074 7.89073 1.33013 7.89073C1.35282 7.89073 1.3756 7.88206 1.39295 7.86471C1.53694 7.72067 1.50259 7.57114 1.46532 7.41289C1.57885 7.44982 1.6966 7.42245 1.75969 7.34286C1.79101 7.30315 1.85157 7.19178 1.73809 7.01393C1.71179 6.97264 1.6569 6.96036 1.61546 6.98665C1.57407 7.01304 1.56202 7.06803 1.58841 7.10928C1.63098 7.17626 1.63224 7.21756 1.62034 7.23265C1.60623 7.25032 1.56282 7.2597 1.51702 7.24376C1.48754 7.23354 1.41901 7.19815 1.41901 7.09128C1.41901 7.00592 1.45848 6.92768 1.52729 6.87687C1.59624 6.82587 1.6854 6.81129 1.77151 6.8382C1.87773 6.87064 1.95193 6.98253 1.95193 7.11036C1.95193 7.20181 1.93233 7.29425 1.89512 7.37787L1.31335 8.68667C1.26554 8.7942 1.24126 8.90857 1.24126 9.02632C1.24126 9.17787 1.31016 9.31624 1.41863 9.40071C1.31021 9.48518 1.24126 9.62355 1.24126 9.7751C1.24126 9.8929 1.26559 10.0072 1.31335 10.1148L1.89502 11.4235C1.93219 11.5071 1.95183 11.5995 1.95183 11.691C1.95183 11.8188 1.87768 11.9307 1.77141 11.9631C1.68507 11.99 1.5961 11.9756 1.52719 11.9245C1.45838 11.8736 1.41891 11.7954 1.41891 11.71C1.41891 11.6032 1.48744 11.5678 1.51693 11.5576C1.56273 11.5416 1.60609 11.5508 1.62024 11.5687C1.63215 11.5838 1.63088 11.6251 1.58832 11.692C1.56193 11.7333 1.57398 11.7883 1.61537 11.8147C1.65709 11.8411 1.71183 11.8289 1.73799 11.7874C1.85143 11.6095 1.79091 11.4982 1.7596 11.4585C1.69646 11.3789 1.57876 11.3515 1.46523 11.3884C1.50254 11.2302 1.53685 11.0807 1.39285 10.9366C1.35816 10.9019 1.30196 10.9019 1.26727 10.9366C1.23259 10.9713 1.23259 11.0275 1.26727 11.0622C1.33838 11.1333 1.32915 11.1918 1.29165 11.3503C1.2692 11.4454 1.24126 11.5639 1.24126 11.71C1.24126 11.8071 1.27543 11.9001 1.3329 11.9764H1.33004C1.28096 11.9764 1.24121 12.0161 1.24121 12.0653C1.24121 12.1144 1.28091 12.1541 1.33004 12.1541H1.3329C1.27538 12.2305 1.24126 12.3234 1.24126 12.4206C1.24126 12.5666 1.2692 12.6851 1.29165 12.7802C1.3291 12.9388 1.33843 12.9972 1.26727 13.0683C1.23259 13.103 1.23259 13.1592 1.26727 13.1939C1.28462 13.2113 1.30735 13.2199 1.33009 13.2199C1.35277 13.2199 1.37555 13.2113 1.3929 13.1939C1.5369 13.0499 1.50254 12.9003 1.46527 12.7421C1.5788 12.779 1.69655 12.7517 1.75965 12.6721C1.79096 12.6324 1.85152 12.521 1.73804 12.3431C1.71174 12.3018 1.65685 12.2896 1.61541 12.3159C1.57402 12.3423 1.56198 12.3972 1.58837 12.4385C1.63093 12.5055 1.63219 12.5468 1.62029 12.5619C1.60618 12.5797 1.56277 12.5891 1.51698 12.573C1.48749 12.5627 1.41896 12.5274 1.41896 12.4205C1.41896 12.3351 1.45843 12.2569 1.52724 12.2061C1.59619 12.1551 1.68535 12.1405 1.77146 12.1674C1.87768 12.1998 1.95188 12.3117 1.95188 12.4396C1.95188 12.531 1.93229 12.6235 1.89507 12.7071L1.31335 14.016C1.26554 14.1235 1.24126 14.2379 1.24126 14.3557C1.24126 14.5072 1.31016 14.6456 1.41863 14.7301C1.31021 14.8145 1.24126 14.9529 1.24126 15.1044C1.24126 15.2222 1.26559 15.3366 1.31335 15.4441L1.89502 16.7528C1.93219 16.8364 1.95183 16.9289 1.95183 17.0203C1.95183 17.1482 1.87768 17.26 1.77141 17.2925C1.68507 17.3194 1.5961 17.3048 1.52719 17.2538C1.45838 17.2029 1.41891 17.1248 1.41891 17.0394C1.41891 16.9325 1.48744 16.8972 1.51693 16.8869C1.56273 16.8709 1.60609 16.8801 1.62024 16.898C1.63215 16.9131 1.63088 16.9544 1.58832 17.0214C1.56193 17.0627 1.57398 17.1176 1.61537 17.144C1.65709 17.1704 1.71183 17.1582 1.73799 17.1167C1.85143 16.9389 1.79091 16.8276 1.7596 16.7878C1.69646 16.708 1.57876 16.6807 1.46523 16.7178C1.50254 16.5596 1.53685 16.41 1.39285 16.266C1.35816 16.2313 1.30196 16.2313 1.26727 16.266C1.23259 16.3006 1.23259 16.3569 1.26727 16.3915C1.33838 16.4626 1.32915 16.5211 1.29165 16.6797C1.2692 16.7747 1.24126 16.8932 1.24126 17.0393C1.24126 17.1785 1.30796 17.311 1.41948 17.3946C1.30796 17.4781 1.24126 17.6107 1.24126 17.7499C1.24126 17.8959 1.2692 18.0144 1.29165 18.1095C1.3291 18.268 1.33843 18.3265 1.26727 18.3976C1.23259 18.4323 1.23259 18.4885 1.26727 18.5232C1.28462 18.5406 1.30735 18.5492 1.33009 18.5492C1.35277 18.5492 1.37555 18.5406 1.3929 18.5232C1.5369 18.3792 1.50254 18.2296 1.46527 18.0714C1.5788 18.1083 1.69655 18.081 1.75965 18.0014C1.79096 17.9617 1.85152 17.8503 1.73804 17.6724C1.71174 17.6311 1.65685 17.619 1.61541 17.6452C1.57402 17.6715 1.56198 17.7265 1.58837 17.7678C1.63093 17.8348 1.63219 17.8761 1.62029 17.8912C1.60618 17.909 1.56277 17.9182 1.51698 17.9023C1.48749 17.892 1.41896 17.8567 1.41896 17.7498C1.41896 17.6644 1.45843 17.5862 1.52724 17.5354C1.59619 17.4844 1.68535 17.47 1.77146 17.4967C1.87768 17.5291 1.95188 17.641 1.95188 17.7689C1.95188 17.8603 1.93229 17.9528 1.89629 18.0338C1.89057 18.0457 1.75482 18.3269 1.71985 18.4317C1.65071 18.639 1.72098 18.7433 1.76893 18.7868C1.80994 18.8242 1.86277 18.8438 1.91677 18.8438C1.94738 18.8438 1.97841 18.8373 2.00766 18.8245C2.01994 18.8191 2.03007 18.8112 2.04071 18.8039C2.05135 18.8113 2.06152 18.8191 2.07376 18.8245C2.10296 18.8374 2.13404 18.8438 2.16465 18.8438C2.21851 18.8438 2.27143 18.8242 2.31249 18.7868C2.36044 18.7433 2.43071 18.639 2.36157 18.4317C2.3266 18.3269 2.1909 18.0457 2.1864 18.0363C2.14922 17.9527 2.12958 17.8603 2.12958 17.7688C2.12958 17.6409 2.20374 17.529 2.31001 17.4967C2.3964 17.4699 2.48532 17.4843 2.55422 17.5353C2.62304 17.5862 2.66251 17.6644 2.66251 17.7497C2.66251 17.8566 2.59397 17.892 2.56449 17.9022C2.51888 17.9182 2.47519 17.909 2.46118 17.8911C2.44927 17.876 2.45054 17.8347 2.4931 17.7677C2.51949 17.7264 2.50744 17.6715 2.46605 17.6451C2.42457 17.6191 2.36987 17.6312 2.34343 17.6724C2.22999 17.8502 2.29051 17.9616 2.32182 18.0013C2.38496 18.0809 2.50266 18.1083 2.61619 18.0713C2.57888 18.2295 2.54457 18.3791 2.68857 18.5232C2.70591 18.5405 2.72865 18.5492 2.75138 18.5492C2.77411 18.5492 2.79685 18.5405 2.81419 18.5232C2.84888 18.4885 2.84888 18.4323 2.81419 18.3976C2.74308 18.3265 2.75232 18.268 2.78982 18.1095C2.81227 18.0144 2.84021 17.8959 2.84021 17.7498C2.84021 17.6106 2.77351 17.4781 2.66199 17.3945C2.77351 17.311 2.84021 17.1785 2.84021 17.0392C2.84021 16.8931 2.81227 16.7746 2.78982 16.6796C2.75236 16.5211 2.74304 16.4626 2.81419 16.3914C2.84888 16.3568 2.84888 16.3006 2.81419 16.2659C2.77951 16.2312 2.7233 16.2312 2.68861 16.2659C2.54461 16.4099 2.57897 16.5594 2.61624 16.7177C2.50271 16.6806 2.38496 16.7079 2.32187 16.7877C2.29055 16.8274 2.22999 16.9388 2.34347 17.1166C2.36987 17.1579 2.42443 17.1701 2.4661 17.1439C2.50749 17.1175 2.51954 17.0626 2.49315 17.0213C2.45058 16.9543 2.44932 16.913 2.46122 16.8979C2.47529 16.8801 2.51888 16.8709 2.56454 16.8868C2.59402 16.897 2.66255 16.9324 2.66255 17.0393C2.66255 17.1247 2.62308 17.2029 2.55427 17.2537C2.48532 17.3047 2.39607 17.3193 2.31005 17.2924C2.20383 17.2599 2.12963 17.1481 2.12963 17.0202C2.12963 16.9288 2.14922 16.8363 2.18644 16.7527L2.76811 15.444C2.81593 15.3365 2.84021 15.2221 2.84021 15.1044C2.84021 14.9528 2.7713 14.8144 2.66283 14.73C2.77126 14.6455 2.84021 14.5071 2.84021 14.3556C2.84021 14.2378 2.81588 14.1234 2.76811 14.0159L2.18649 12.7073C2.14932 12.6237 2.12968 12.5312 2.12968 12.4398C2.12968 12.3119 2.20383 12.2001 2.3101 12.1676C2.39649 12.1409 2.48541 12.1553 2.55432 12.2063C2.62313 12.2572 2.6626 12.3354 2.6626 12.4207C2.6626 12.5276 2.59407 12.5629 2.56458 12.5732C2.51897 12.5893 2.47529 12.58 2.46127 12.5621C2.44937 12.547 2.45063 12.5057 2.49319 12.4387C2.51958 12.3974 2.50754 12.3425 2.46615 12.3161C2.42466 12.2901 2.36996 12.3022 2.34352 12.3434C2.23008 12.5212 2.2906 12.6325 2.32191 12.6723C2.38505 12.7519 2.50276 12.7793 2.61629 12.7423C2.57897 12.9005 2.54466 13.0501 2.68866 13.1942C2.70601 13.2115 2.72874 13.2202 2.75147 13.2202C2.77421 13.2202 2.79694 13.2115 2.81429 13.1942C2.84897 13.1595 2.84897 13.1033 2.81429 13.0686C2.74318 12.9975 2.75241 12.939 2.78991 12.7804C2.81236 12.6854 2.8403 12.5669 2.8403 12.4208C2.8403 12.3236 2.80613 12.2307 2.74866 12.1543H2.75152C2.8006 12.1543 2.84035 12.1146 2.84035 12.0655C2.84035 12.0164 2.80065 11.9767 2.75152 11.9767H2.74866C2.80618 11.9003 2.8403 11.8075 2.8403 11.7102C2.8403 11.5641 2.81236 11.4456 2.78991 11.3506C2.75246 11.192 2.74313 11.1335 2.81429 11.0624C2.84897 11.0277 2.84897 10.9715 2.81429 10.9368C2.7796 10.9022 2.7234 10.9022 2.68871 10.9368C2.54471 11.0809 2.57907 11.2304 2.61633 11.3887C2.5028 11.3517 2.38505 11.3791 2.32196 11.4587C2.29065 11.4984 2.23008 11.6098 2.34357 11.7876C2.36996 11.8289 2.42452 11.8409 2.46619 11.8149C2.50758 11.7885 2.51963 11.7335 2.49324 11.6923C2.45068 11.6253 2.44941 11.584 2.46132 11.5689C2.47538 11.551 2.51897 11.5419 2.56463 11.5578C2.59411 11.568 2.66265 11.6034 2.66265 11.7103C2.66265 11.7956 2.62318 11.8739 2.55436 11.9247C2.48541 11.9757 2.39616 11.9901 2.31015 11.9634C2.20393 11.9309 2.12972 11.819 2.12972 11.6912C2.12972 11.5998 2.14932 11.5073 2.18654 11.4237L2.76821 10.115C2.81602 10.0075 2.8403 9.89308 2.8403 9.77533C2.8403 9.62379 2.7714 9.48541 2.66293 9.40094C2.77135 9.31648 2.8403 9.1781 2.8403 9.02655C2.8403 8.90876 2.81597 8.79443 2.76821 8.6869L2.18654 7.3782C2.14937 7.29457 2.12972 7.20214 2.12972 7.11068C2.12972 6.98281 2.20388 6.87097 2.31015 6.83853C2.39654 6.81181 2.48546 6.8262 2.55436 6.8772C2.62318 6.92806 2.66265 7.00625 2.66265 7.09161C2.66265 7.19848 2.59411 7.23382 2.56463 7.24409C2.51902 7.26007 2.47533 7.25065 2.46132 7.23298C2.44941 7.21789 2.45068 7.17659 2.49324 7.10961C2.51963 7.06831 2.50758 7.01332 2.46619 6.98698C2.42471 6.96097 2.37001 6.97292 2.34357 7.01422C2.23013 7.19206 2.29065 7.30339 2.32196 7.34314C2.3851 7.42273 2.5028 7.45015 2.61633 7.41317C2.57902 7.57137 2.54471 7.72095 2.68871 7.86499C2.70605 7.88234 2.72879 7.89101 2.75152 7.89101C2.77426 7.89101 2.79699 7.88234 2.81433 7.86499C2.84902 7.83031 2.84902 7.7741 2.81433 7.73942C2.74322 7.66831 2.75246 7.60985 2.78996 7.45128C2.81241 7.35621 2.84035 7.23771 2.84035 7.09165C2.84035 6.99448 2.80618 6.90153 2.74871 6.82517H2.75157C2.80065 6.82517 2.8404 6.78547 2.8404 6.73634C2.8404 6.68726 2.80069 6.64751 2.75157 6.64751H2.74871C2.80622 6.57115 2.84035 6.47829 2.84035 6.38103C2.84007 6.23473 2.81213 6.11623 2.78972 6.02117ZM1.88832 5.64266C1.85677 5.54797 1.86779 5.49402 1.8886 5.47508C1.90219 5.46223 1.92282 5.46275 1.9359 5.46866C1.95193 5.47578 1.95193 5.48708 1.95193 5.49261C1.95193 5.54169 1.99163 5.58144 2.04076 5.58144C2.08983 5.58144 2.12958 5.54173 2.12958 5.49261C2.12958 5.48708 2.12958 5.47578 2.14562 5.46866C2.15846 5.46275 2.17894 5.46223 2.19291 5.47508C2.21372 5.49402 2.22474 5.54797 2.19319 5.64266C2.17022 5.71133 2.08712 5.89011 2.0408 5.98714C1.99543 5.89236 1.91143 5.7118 1.88832 5.64266ZM2.04071 9.30757C2.06621 9.34221 2.09504 9.37446 2.1301 9.40071C2.09504 9.42701 2.06621 9.45921 2.04071 9.49385C2.01521 9.45921 1.98638 9.42696 1.95132 9.40071C1.98638 9.37441 2.01521 9.34226 2.04071 9.30757ZM2.04071 14.6369C2.06621 14.6715 2.09504 14.7038 2.1301 14.73C2.09504 14.7563 2.06621 14.7885 2.04071 14.8231C2.01521 14.7885 1.98638 14.7563 1.95132 14.73C1.98638 14.7037 2.01521 14.6716 2.04071 14.6369ZM2.19305 18.4881C2.2246 18.5828 2.21358 18.6368 2.19277 18.6557C2.1788 18.6683 2.15832 18.6678 2.14547 18.6621C2.12944 18.655 2.12944 18.6437 2.12944 18.6382C2.12944 18.5891 2.08974 18.5493 2.04062 18.5493C1.99149 18.5493 1.95179 18.589 1.95179 18.6382C1.95179 18.6437 1.95179 18.655 1.93576 18.6621C1.92273 18.6678 1.9021 18.6684 1.88846 18.6557C1.86765 18.6368 1.85663 18.5828 1.88818 18.4881C1.91115 18.4194 1.99426 18.2407 2.04057 18.1436C2.08594 18.2384 2.16994 18.419 2.19305 18.4881ZM2.12926 17.3947C2.09565 17.4208 2.06583 17.4521 2.04071 17.4875C2.01563 17.4521 1.98577 17.4209 1.95216 17.3947C1.98577 17.3685 2.01558 17.3372 2.04071 17.3018C2.06579 17.3372 2.0956 17.3685 2.12926 17.3947ZM2.6056 15.3719L2.04066 16.6429L1.47573 15.3719C1.43855 15.2882 1.41891 15.1958 1.41891 15.1044C1.41891 14.9765 1.49307 14.8646 1.59934 14.8322C1.68568 14.8055 1.77474 14.8199 1.84355 14.8709C1.91237 14.9217 1.95183 14.9999 1.95183 15.0853C1.95183 15.1922 1.8833 15.2275 1.85382 15.2378C1.80802 15.2537 1.76448 15.2446 1.75051 15.2266C1.7386 15.2116 1.73987 15.1703 1.78243 15.1033C1.80882 15.062 1.79677 15.007 1.75538 14.9807C1.7139 14.9546 1.65919 14.9668 1.63276 15.0079C1.51932 15.1858 1.57984 15.2971 1.61115 15.3369C1.67546 15.418 1.79644 15.446 1.91213 15.4055C1.9253 15.401 1.93866 15.3953 1.95183 15.3886V15.6132C1.95183 15.6132 1.95169 15.6131 1.95169 15.6131C1.94902 15.5663 1.9103 15.5294 1.86305 15.5294C1.81398 15.5294 1.77423 15.5691 1.77423 15.6182C1.77423 15.6762 1.81473 15.7767 1.95183 15.8078V15.9735C1.95183 16.0226 1.99154 16.0623 2.04066 16.0623C2.08979 16.0623 2.12949 16.0226 2.12949 15.9735V15.8078C2.2666 15.7767 2.3071 15.6762 2.3071 15.6182C2.3071 15.5692 2.26749 15.5265 2.21846 15.5265C2.16938 15.5265 2.12982 15.5633 2.12982 15.6124C2.12977 15.6125 2.12949 15.6128 2.12944 15.6129V15.3887C2.14262 15.3954 2.15597 15.4011 2.16915 15.4056C2.28483 15.446 2.40577 15.4181 2.47013 15.3369C2.50144 15.2972 2.56201 15.1859 2.44852 15.008C2.42213 14.9667 2.36733 14.9546 2.3259 14.9807C2.28451 15.0071 2.27246 15.0621 2.29885 15.1034C2.34141 15.1704 2.34268 15.2116 2.33077 15.2267C2.31671 15.2446 2.27316 15.2538 2.22746 15.2379C2.19797 15.2276 2.12944 15.1922 2.12944 15.0854C2.12944 15 2.16891 14.9218 2.23772 14.871C2.30668 14.82 2.39593 14.8054 2.48194 14.8323C2.58816 14.8647 2.66236 14.9766 2.66236 15.1044C2.66246 15.1958 2.64286 15.2883 2.6056 15.3719ZM2.6056 14.0882C2.64277 14.1718 2.66241 14.2642 2.66241 14.3557C2.66241 14.4835 2.58826 14.5954 2.48199 14.6278C2.39579 14.6547 2.30658 14.6402 2.23777 14.5892C2.16896 14.5383 2.12949 14.4601 2.12949 14.3747C2.12949 14.2679 2.19802 14.2325 2.22751 14.2223C2.27321 14.2063 2.3168 14.2155 2.33082 14.2334C2.34272 14.2485 2.34146 14.2898 2.2989 14.3567C2.27251 14.398 2.28455 14.453 2.32594 14.4794C2.36766 14.5058 2.42241 14.4936 2.44857 14.4521C2.56201 14.2742 2.50149 14.1629 2.47018 14.1232C2.40582 14.042 2.28488 14.0144 2.16919 14.0545C2.15602 14.059 2.14266 14.0648 2.12949 14.0714V13.8467L2.12963 13.847C2.1323 13.8937 2.17102 13.9307 2.21827 13.9307C2.26735 13.9307 2.3071 13.8909 2.3071 13.8418C2.3071 13.7839 2.2666 13.6834 2.12949 13.6523V13.4866C2.12949 13.4375 2.08979 13.3977 2.04066 13.3977C1.99154 13.3977 1.95183 13.4374 1.95183 13.4866V13.6523C1.81473 13.6834 1.77423 13.7839 1.77423 13.8418C1.77423 13.8909 1.81383 13.9336 1.86287 13.9336C1.91194 13.9336 1.95151 13.8968 1.95151 13.8477C1.95155 13.8475 1.95183 13.8473 1.95183 13.8473L1.95188 14.0714C1.93871 14.0647 1.92535 14.059 1.91218 14.0544C1.79649 14.0144 1.67551 14.042 1.61119 14.1231C1.57988 14.1628 1.51932 14.2742 1.6328 14.452C1.65919 14.4933 1.71399 14.5053 1.75543 14.4793C1.79682 14.4529 1.80887 14.3979 1.78248 14.3567C1.73991 14.2897 1.73865 14.2484 1.75055 14.2333C1.76452 14.2155 1.80807 14.2063 1.85387 14.2222C1.88335 14.2324 1.95188 14.2678 1.95188 14.3747C1.95188 14.4601 1.91241 14.5383 1.8436 14.5891C1.77465 14.6401 1.68559 14.6547 1.59938 14.6278C1.49316 14.5953 1.41896 14.4834 1.41896 14.3556C1.41896 14.2642 1.43855 14.1717 1.47577 14.0881L2.04071 12.817L2.6056 14.0882ZM2.12926 12.0654C2.09565 12.0916 2.06583 12.1229 2.04071 12.1583C2.01563 12.1229 1.98577 12.0916 1.95216 12.0654C1.98577 12.0393 2.01558 12.0079 2.04071 11.9725C2.06579 12.0079 2.0956 12.0392 2.12926 12.0654ZM2.6056 10.0426L2.04066 11.3137L1.47573 10.0426C1.43855 9.95899 1.41891 9.86655 1.41891 9.7751C1.41891 9.64723 1.49307 9.53538 1.59934 9.50294C1.68568 9.47623 1.77474 9.49062 1.84355 9.54162C1.91237 9.59248 1.95183 9.67066 1.95183 9.75602C1.95183 9.8629 1.8833 9.89824 1.85382 9.90851C1.80802 9.92463 1.76448 9.9153 1.75051 9.8974C1.7386 9.8823 1.73987 9.84101 1.78243 9.77402C1.80882 9.73272 1.79677 9.67774 1.75538 9.6514C1.7139 9.62524 1.65919 9.63733 1.63276 9.67868C1.51932 9.85652 1.57984 9.96785 1.61115 10.0076C1.67546 10.0888 1.79644 10.1165 1.91213 10.0763C1.9253 10.0717 1.93866 10.0661 1.95183 10.0593V10.284L1.95169 10.2837C1.94902 10.2371 1.9103 10.2001 1.86305 10.2001C1.81398 10.2001 1.77423 10.2398 1.77423 10.2889C1.77423 10.3468 1.81473 10.4473 1.95183 10.4785V10.6442C1.95183 10.6932 1.99154 10.733 2.04066 10.733C2.08979 10.733 2.12949 10.6933 2.12949 10.6442V10.4785C2.2666 10.4473 2.3071 10.3468 2.3071 10.2889C2.3071 10.2398 2.26749 10.1971 2.21846 10.1971C2.16938 10.1971 2.12982 10.2339 2.12982 10.283C2.12977 10.2831 2.12949 10.2834 2.12949 10.2834L2.12944 10.0593C2.14262 10.066 2.15597 10.0717 2.16915 10.0762C2.28483 10.1164 2.40577 10.0887 2.47013 10.0076C2.50144 9.96785 2.56201 9.85648 2.44852 9.67863C2.42213 9.63715 2.36733 9.62505 2.3259 9.65135C2.28451 9.67774 2.27246 9.73273 2.29885 9.77398C2.34141 9.84096 2.34268 9.88226 2.33077 9.89735C2.31671 9.91521 2.27316 9.92463 2.22746 9.90846C2.19797 9.89824 2.12944 9.86285 2.12944 9.75598C2.12944 9.67062 2.16891 9.59238 2.23772 9.54157C2.30668 9.49057 2.39593 9.47618 2.48194 9.5029C2.58816 9.53534 2.66236 9.64723 2.66236 9.77505C2.66246 9.86655 2.64286 9.95899 2.6056 10.0426ZM2.6056 8.75885C2.64277 8.84248 2.66241 8.93491 2.66241 9.02637C2.66241 9.15424 2.58826 9.26609 2.48199 9.29852C2.39579 9.32543 2.30658 9.31085 2.23777 9.25985C2.16896 9.20899 2.12949 9.1308 2.12949 9.04545C2.12949 8.93857 2.19802 8.90323 2.22751 8.89296C2.27321 8.87698 2.3168 8.88616 2.33082 8.90407C2.34272 8.91916 2.34146 8.96046 2.2989 9.02745C2.27251 9.06874 2.28455 9.12368 2.32594 9.15007C2.36766 9.17623 2.42241 9.16427 2.44857 9.12279C2.56201 8.94495 2.50149 8.83362 2.47018 8.79387C2.40582 8.71268 2.28488 8.68493 2.16919 8.7252C2.15602 8.72974 2.14266 8.73541 2.12949 8.74212V8.51749C2.12949 8.51754 2.12963 8.51763 2.12963 8.51763C2.1323 8.56442 2.17102 8.60131 2.21827 8.60131C2.26735 8.60131 2.3071 8.5616 2.3071 8.51248C2.3071 8.45454 2.2666 8.35404 2.12949 8.32292V8.15721C2.12949 8.10814 2.08979 8.06839 2.04066 8.06839C1.99154 8.06839 1.95183 8.10809 1.95183 8.15721V8.32292C1.81473 8.35404 1.77423 8.45454 1.77423 8.51248C1.77423 8.56156 1.81383 8.60426 1.86287 8.60426C1.91194 8.60426 1.95151 8.56746 1.95151 8.51838C1.95155 8.51824 1.95183 8.51801 1.95188 8.51787V8.74207C1.93871 8.73537 1.92535 8.7297 1.91218 8.72515C1.79649 8.68493 1.67551 8.71268 1.61119 8.79382C1.57988 8.83352 1.51932 8.9449 1.6328 9.12274C1.65919 9.16404 1.71399 9.17604 1.75543 9.15002C1.79682 9.12363 1.80887 9.06865 1.78248 9.0274C1.73991 8.96041 1.73865 8.91912 1.75055 8.90402C1.76452 8.88616 1.80807 8.87698 1.85387 8.89291C1.88335 8.90313 1.95188 8.93852 1.95188 9.0454C1.95188 9.13076 1.91241 9.20899 1.8436 9.2598C1.77465 9.3108 1.68559 9.32538 1.59938 9.29848C1.49316 9.26604 1.41896 9.15415 1.41896 9.02632C1.41896 8.93487 1.43855 8.84243 1.47577 8.75881L2.04071 7.48775L2.6056 8.75885ZM1.95212 6.73611C1.98573 6.70995 2.01554 6.67864 2.04066 6.64325C2.06574 6.67864 2.0956 6.7099 2.12921 6.73611C2.0956 6.76226 2.06579 6.79358 2.04066 6.82897C2.01558 6.79358 1.98577 6.76226 1.95212 6.73611Z" fill="#FFE15A"/>
<path d="M12.6905 13.1545C13.8712 13.1545 14.8283 12.1973 14.8283 11.0167C14.8283 9.83602 13.8712 8.87891 12.6905 8.87891C11.5098 8.87891 10.5527 9.83602 10.5527 11.0167C10.5527 12.1973 11.5098 13.1545 12.6905 13.1545Z" fill="#FFE15A"/>
<path d="M12.851 8.29158C12.851 8.38012 12.7792 8.45194 12.6906 8.45194C12.6021 8.45194 12.5303 8.38012 12.5303 8.29158C12.5303 8.20303 12.6906 7.81055 12.6906 7.81055C12.6906 7.81055 12.851 8.20303 12.851 8.29158Z" fill="#FFE15A"/>
<path d="M12.5303 13.7424C12.5303 13.6538 12.6021 13.582 12.6906 13.582C12.7792 13.582 12.851 13.6538 12.851 13.7424C12.851 13.8309 12.6906 14.2234 12.6906 14.2234C12.6906 14.2234 12.5303 13.831 12.5303 13.7424Z" fill="#FFE15A"/>
<path d="M15.4172 11.1781C15.3286 11.1781 15.2568 11.1063 15.2568 11.0178C15.2568 10.9292 15.3286 10.8574 15.4172 10.8574C15.5057 10.8574 15.8982 11.0178 15.8982 11.0178C15.8982 11.0178 15.5057 11.1781 15.4172 11.1781Z" fill="#FFE15A"/>
<path d="M9.96541 10.8574C10.054 10.8574 10.1258 10.9292 10.1258 11.0178C10.1258 11.1063 10.054 11.1781 9.96541 11.1781C9.87686 11.1781 9.48438 11.0178 9.48438 11.0178C9.48438 11.0178 9.87686 10.8574 9.96541 10.8574Z" fill="#FFE15A"/>
<path d="M14.7318 9.20356C14.6691 9.26619 14.5677 9.26619 14.505 9.20356C14.4423 9.14094 14.4424 9.03945 14.505 8.97678C14.5676 8.91411 14.9585 8.75 14.9585 8.75C14.9585 8.75 14.7944 9.14094 14.7318 9.20356Z" fill="#FFE15A"/>
<path d="M10.6506 12.8321C10.7132 12.7695 10.8147 12.7695 10.8773 12.8321C10.94 12.8948 10.94 12.9962 10.8773 13.0589C10.8147 13.1216 10.4238 13.2856 10.4238 13.2856C10.4238 13.2856 10.5879 12.8948 10.6506 12.8321Z" fill="#FFE15A"/>
<path d="M14.505 13.0589C14.4424 12.9963 14.4424 12.8948 14.505 12.8321C14.5676 12.7695 14.6691 12.7695 14.7318 12.8321C14.7944 12.8948 14.9585 13.2857 14.9585 13.2857C14.9585 13.2857 14.5676 13.1215 14.505 13.0589Z" fill="#FFE15A"/>
<path d="M10.8774 8.97673C10.94 9.03936 10.94 9.14084 10.8774 9.20352C10.8148 9.26619 10.7133 9.26614 10.6506 9.20352C10.5879 9.14089 10.4238 8.75 10.4238 8.75C10.4238 8.75 10.8148 8.91416 10.8774 8.97673Z" fill="#FFE15A"/>
<path d="M11.7961 8.4378C11.83 8.51964 11.7911 8.61339 11.7093 8.64728C11.6275 8.68117 11.5337 8.64231 11.4998 8.56047C11.4659 8.47863 11.4639 8.05469 11.4639 8.05469C11.4639 8.05469 11.7622 8.35595 11.7961 8.4378Z" fill="#FFE15A"/>
<path d="M13.5865 13.5967C13.5526 13.5149 13.5914 13.4211 13.6733 13.3872C13.7551 13.3534 13.8489 13.3922 13.8828 13.4741C13.9166 13.5559 13.9187 13.9798 13.9187 13.9798C13.9187 13.9798 13.6203 13.6786 13.5865 13.5967Z" fill="#FFE15A"/>
<path d="M15.2706 10.1233C15.1887 10.1572 15.095 10.1183 15.0611 10.0365C15.0272 9.95461 15.066 9.86086 15.1479 9.82697C15.2297 9.79308 15.6536 9.79102 15.6536 9.79102C15.6536 9.79102 15.3524 10.0893 15.2706 10.1233Z" fill="#FFE15A"/>
<path d="M10.1116 11.9126C10.1935 11.8787 10.2872 11.9176 10.3211 11.9994C10.355 12.0813 10.3161 12.175 10.2343 12.2089C10.1524 12.2428 9.72852 12.2449 9.72852 12.2449C9.72852 12.2449 10.0298 11.9466 10.1116 11.9126Z" fill="#FFE15A"/>
<path d="M13.8827 8.56042C13.8489 8.64227 13.7551 8.68108 13.6733 8.64723C13.5914 8.61334 13.5526 8.51955 13.5864 8.43775C13.6203 8.35595 13.9186 8.05469 13.9186 8.05469C13.9186 8.05469 13.9166 8.47863 13.8827 8.56042Z" fill="#FFE15A"/>
<path d="M11.4998 13.474C11.5337 13.3922 11.6275 13.3534 11.7093 13.3872C11.7911 13.4211 11.8299 13.5149 11.7961 13.5967C11.7622 13.6786 11.4639 13.9798 11.4639 13.9798C11.4639 13.9798 11.4659 13.5559 11.4998 13.474Z" fill="#FFE15A"/>
<path d="M15.1479 12.2089C15.066 12.175 15.0272 12.0812 15.0611 11.9994C15.0949 11.9176 15.1887 11.8788 15.2705 11.9126C15.3523 11.9465 15.6536 12.2448 15.6536 12.2448C15.6536 12.2448 15.2296 12.2428 15.1479 12.2089Z" fill="#FFE15A"/>
<path d="M10.2342 9.82692C10.3161 9.86081 10.3549 9.95461 10.3211 10.0364C10.2872 10.1182 10.1934 10.1571 10.1116 10.1232C10.0298 10.0893 9.72852 9.79102 9.72852 9.79102C9.72852 9.79102 10.1525 9.79298 10.2342 9.82692Z" fill="#FFE15A"/>
<path d="M12.316 8.31358C12.3333 8.40044 12.2769 8.48486 12.19 8.50211C12.1031 8.5194 12.0187 8.46301 12.0015 8.37611C11.9842 8.28925 12.0649 7.87305 12.0649 7.87305C12.0649 7.87305 12.2987 8.22672 12.316 8.31358Z" fill="#FFE15A"/>
<path d="M13.0656 13.7229C13.0483 13.636 13.1047 13.5516 13.1916 13.5344C13.2785 13.5171 13.3629 13.5735 13.3801 13.6604C13.3974 13.7472 13.3167 14.1634 13.3167 14.1634C13.3167 14.1634 13.0829 13.8098 13.0656 13.7229Z" fill="#FFE15A"/>
<path d="M15.3958 10.6431C15.3089 10.6604 15.2245 10.604 15.2072 10.5171C15.1899 10.4302 15.2463 10.3459 15.3332 10.3286C15.4201 10.3113 15.8363 10.392 15.8363 10.392C15.8363 10.392 15.4826 10.6259 15.3958 10.6431Z" fill="#FFE15A"/>
<path d="M9.98643 11.3918C10.0733 11.3745 10.1577 11.4309 10.175 11.5178C10.1923 11.6047 10.1359 11.6891 10.049 11.7063C9.9621 11.7236 9.5459 11.6429 9.5459 11.6429C9.5459 11.6429 9.89957 11.409 9.98643 11.3918Z" fill="#FFE15A"/>
<path d="M14.3386 8.84066C14.2894 8.9143 14.1898 8.93408 14.1162 8.88486C14.0425 8.83564 14.0228 8.73608 14.072 8.66244C14.1212 8.5888 14.4725 8.35156 14.4725 8.35156C14.4725 8.35156 14.3878 8.76697 14.3386 8.84066Z" fill="#FFE15A"/>
<path d="M11.0431 13.1943C11.0923 13.1207 11.1919 13.1009 11.2655 13.1501C11.3392 13.1993 11.3589 13.2989 11.3097 13.3725C11.2606 13.4462 10.9092 13.6834 10.9092 13.6834C10.9092 13.6834 10.9939 13.268 11.0431 13.1943Z" fill="#FFE15A"/>
<path d="M14.8681 12.6648C14.7945 12.6156 14.7747 12.516 14.8239 12.4424C14.8732 12.3687 14.9727 12.3489 15.0464 12.3982C15.12 12.4473 15.3572 12.7987 15.3572 12.7987C15.3572 12.7987 14.9418 12.714 14.8681 12.6648Z" fill="#FFE15A"/>
<path d="M10.5135 9.37025C10.5872 9.41942 10.6069 9.51903 10.5577 9.59267C10.5085 9.66631 10.4089 9.68609 10.3353 9.63687C10.2617 9.58766 10.0244 9.23633 10.0244 9.23633C10.0244 9.23633 10.4399 9.32108 10.5135 9.37025Z" fill="#FFE15A"/>
<path d="M11.3097 8.66239C11.3589 8.73603 11.3391 8.83559 11.2655 8.88481C11.1919 8.93403 11.0923 8.9142 11.0431 8.84061C10.9939 8.76697 10.9092 8.35156 10.9092 8.35156C10.9092 8.35156 11.2605 8.5888 11.3097 8.66239Z" fill="#FFE15A"/>
<path d="M14.072 13.3725C14.0228 13.2989 14.0426 13.1993 14.1162 13.1501C14.1897 13.1009 14.2894 13.1207 14.3386 13.1943C14.3877 13.2679 14.4725 13.6833 14.4725 13.6833C14.4725 13.6833 14.1212 13.4461 14.072 13.3725Z" fill="#FFE15A"/>
<path d="M15.0463 9.63687C14.9727 9.68604 14.8731 9.66626 14.8239 9.59267C14.7747 9.51903 14.7945 9.41947 14.8681 9.37025C14.9417 9.32108 15.3572 9.23633 15.3572 9.23633C15.3572 9.23633 15.12 9.5877 15.0463 9.63687Z" fill="#FFE15A"/>
<path d="M10.3352 12.3981C10.4089 12.349 10.5084 12.3687 10.5577 12.4423C10.6068 12.516 10.5871 12.6155 10.5135 12.6647C10.4398 12.7139 10.0244 12.7987 10.0244 12.7987C10.0244 12.7987 10.2616 12.4473 10.3352 12.3981Z" fill="#FFE15A"/>
<path d="M13.3801 8.37611C13.3628 8.46297 13.2785 8.5194 13.1916 8.50211C13.1048 8.48481 13.0483 8.40044 13.0656 8.31358C13.0829 8.22672 13.3167 7.87305 13.3167 7.87305C13.3167 7.87305 13.3974 8.28925 13.3801 8.37611Z" fill="#FFE15A"/>
<path d="M12.0014 13.6604C12.0187 13.5735 12.1031 13.5171 12.19 13.5344C12.2768 13.5517 12.3333 13.636 12.316 13.7229C12.2987 13.8098 12.0649 14.1634 12.0649 14.1634C12.0649 14.1634 11.9842 13.7472 12.0014 13.6604Z" fill="#FFE15A"/>
<path d="M15.3332 11.7063C15.2464 11.689 15.1899 11.6047 15.2072 11.5178C15.2245 11.4309 15.3089 11.3745 15.3957 11.3918C15.4826 11.4091 15.8363 11.6429 15.8363 11.6429C15.8363 11.6429 15.4201 11.7236 15.3332 11.7063Z" fill="#FFE15A"/>
<path d="M10.0489 10.3286C10.1358 10.3459 10.1922 10.4303 10.1749 10.5171C10.1576 10.604 10.0733 10.6604 9.98642 10.6431C9.89956 10.6258 9.5459 10.392 9.5459 10.392C9.5459 10.392 9.96209 10.3113 10.0489 10.3286Z" fill="#FFE15A"/>
<path d="M17.7195 11.5796C17.6569 11.5532 17.5853 11.5834 17.5592 11.6457C17.5592 11.6459 17.5592 11.6459 17.5592 11.6459C17.5587 11.6471 17.5563 11.6529 17.5521 11.6627C17.4594 11.8792 17.2677 12.1956 17.0741 12.4932C17.2544 11.9127 17.4193 11.2927 17.4308 11.2492C17.448 11.184 17.4095 11.1172 17.3444 11.0995C17.2793 11.082 17.2124 11.1199 17.1942 11.1847C17.11 11.4862 16.938 11.883 16.7792 12.2189C16.8083 11.8444 16.8138 11.4974 16.8142 11.4723C16.8151 11.406 16.7632 11.3512 16.6968 11.348C16.6344 11.3499 16.5742 11.3954 16.5693 11.4617C16.4123 13.6212 14.3344 14.5872 14.1321 14.676C14.0263 14.6866 13.5332 14.7421 13.0857 14.8975C13.035 14.9151 12.9917 14.9328 12.9487 14.9503C12.9327 14.9443 12.9156 14.941 12.8975 14.9421C11.524 15.0414 10.4288 14.478 9.64169 13.2709C9.04699 12.3588 8.86048 11.4014 8.85865 11.3918C8.84609 11.3253 8.78234 11.2824 8.71549 11.2942C8.64893 11.3068 8.6052 11.3707 8.61781 11.4373C8.62278 11.4637 8.70462 11.8816 8.92999 12.4316C8.62845 11.9556 8.41831 11.3789 8.34434 11.0786C8.34284 11.0726 8.339 11.0681 8.33675 11.0625C8.33328 11.0541 8.33037 11.0455 8.32526 11.0382C8.32165 11.033 8.31692 11.0292 8.31265 11.0246C8.30595 11.0175 8.29953 11.0106 8.29132 11.0053C8.28664 11.0023 8.28139 11.0008 8.27628 10.9984C8.26723 10.9942 8.25837 10.99 8.24829 10.9881C8.24131 10.9867 8.23418 10.9876 8.22692 10.9874C8.21956 10.9874 8.21262 10.9855 8.20507 10.9868C8.20343 10.9871 8.20217 10.9882 8.20053 10.9886C8.19893 10.9889 8.19743 10.9884 8.19584 10.9887C8.18928 10.9903 8.18426 10.9944 8.17826 10.997C8.17062 11.0003 8.16279 11.0028 8.15609 11.0075C8.14948 11.012 8.14456 11.0179 8.13907 11.0236C8.13359 11.0292 8.12787 11.0342 8.12356 11.0407C8.1192 11.0473 8.11686 11.0548 8.11376 11.0621C8.11081 11.0693 8.10739 11.076 8.10584 11.0838C8.10425 11.0917 8.10495 11.0999 8.105 11.1082C8.105 11.1148 8.10317 11.1211 8.10434 11.1278C8.10481 11.1307 8.10575 11.1337 8.10626 11.1365V11.1369C8.1064 11.1374 8.10659 11.1382 8.10673 11.1387C8.18257 11.5856 8.36332 12.0488 8.52678 12.402C8.26723 12.1075 8.05034 11.7682 7.97347 11.5672C7.97126 11.5614 7.96681 11.5573 7.96381 11.5521C7.95926 11.5439 7.95528 11.5357 7.94914 11.5289C7.94478 11.5242 7.93948 11.5211 7.93451 11.5171C7.92706 11.5111 7.91998 11.505 7.91136 11.5009C7.90583 11.4983 7.89982 11.4974 7.89397 11.4956C7.88492 11.4929 7.87615 11.4899 7.86654 11.4893C7.859 11.4888 7.8515 11.4907 7.84386 11.4917C7.83678 11.4926 7.82979 11.4917 7.82276 11.4939C7.8214 11.4943 7.82047 11.4954 7.8192 11.4959C7.81789 11.4963 7.81658 11.496 7.81526 11.4965C7.80861 11.499 7.80387 11.504 7.79792 11.5075C7.79093 11.5116 7.78348 11.515 7.77753 11.5204C7.77144 11.5259 7.76722 11.5327 7.76243 11.5392C7.75789 11.5453 7.75283 11.5508 7.74945 11.5576C7.74594 11.5648 7.74462 11.5726 7.74261 11.5803C7.74059 11.5879 7.73792 11.5949 7.7374 11.6028C7.73684 11.6107 7.73881 11.6187 7.73984 11.6267C7.74073 11.6336 7.73979 11.6405 7.74195 11.6474C7.87536 12.0777 8.19617 12.5896 8.44751 12.9503C8.23807 12.7889 8.08414 12.6143 8.03947 12.5616C8.03464 12.5559 8.0299 12.5502 8.02508 12.5444C7.98186 12.4925 7.9055 12.4851 7.85314 12.5274C7.80097 12.57 7.79276 12.6467 7.83495 12.6991C7.83725 12.702 7.84644 12.7135 7.86181 12.7314C8.04575 12.9503 8.24614 13.1545 8.42768 13.327L8.17934 13.2211C8.12272 13.1967 8.05615 13.2187 8.02517 13.2726C7.99414 13.3265 8.00815 13.3947 8.05784 13.4321C8.08203 13.45 8.52181 13.7786 8.90252 13.9728C8.86662 13.9749 8.82448 13.9723 8.77732 13.9687C8.71976 13.9632 8.66313 14.0044 8.64912 14.0628C8.63534 14.1214 8.66599 14.1813 8.72168 14.2043C8.73106 14.2081 8.84707 14.256 8.99032 14.307C8.9569 14.3206 8.93032 14.3487 8.91931 14.385C8.90281 14.4394 8.92601 14.4983 8.97532 14.5266C8.98817 14.534 9.16146 14.6334 9.37591 14.7215C9.3702 14.7303 9.36551 14.7399 9.36199 14.7504C9.34521 14.8019 9.36438 14.8584 9.40905 14.8893C9.44627 14.9149 10.279 15.48 11.2516 15.48C11.3154 15.48 11.3799 15.4776 11.4448 15.4724C11.5122 15.4671 11.5626 15.408 11.5572 15.3404C11.5518 15.2729 11.4933 15.2219 11.4252 15.2281C10.8142 15.278 10.2256 15.0486 9.87555 14.8732C9.92177 14.8619 9.94835 14.8517 9.95496 14.8491C10.009 14.827 10.0401 14.7703 10.0295 14.713C10.019 14.6558 9.96968 14.6139 9.91137 14.6127C9.76924 14.6098 9.57241 14.5406 9.40287 14.4663C9.4669 14.4343 9.5043 14.4036 9.50759 14.4009C9.54448 14.37 9.56004 14.3207 9.54748 14.2743C9.53482 14.2281 9.49619 14.1933 9.44885 14.1857C9.39677 14.1771 9.33185 14.1603 9.26388 14.1397C9.32998 14.1016 9.3581 14.0597 9.36888 14.0384C9.3859 14.0044 9.38627 13.9646 9.36996 13.9304C9.35355 13.8962 9.32234 13.8715 9.28516 13.8636C9.2531 13.8566 9.21677 13.8449 9.17754 13.8296C9.18471 13.8224 9.19132 13.8142 9.19666 13.8049C9.22788 13.752 9.21499 13.684 9.16652 13.6459C9.16399 13.644 9.06884 13.5693 8.92474 13.445C8.94762 13.4366 8.96782 13.4211 8.98245 13.4C9.01334 13.3555 9.01123 13.2959 8.97729 13.2537C8.97457 13.2503 8.87927 13.1305 8.74793 12.9485C8.79129 12.9822 8.8346 13.0166 8.87792 13.0444C8.89831 13.0574 8.92137 13.0638 8.94424 13.0638C8.97527 13.0638 9.00588 13.0521 9.02946 13.0293C9.03917 13.0199 9.04676 13.0092 9.05276 12.9977C9.12715 13.0771 9.20529 13.1493 9.28737 13.2108C9.29806 13.2188 9.31104 13.2187 9.32304 13.2227C9.35782 13.281 9.39401 13.3394 9.43198 13.3979C10.1765 14.5434 11.2263 15.157 12.4853 15.1938C12.3694 15.2642 12.2435 15.337 12.0443 15.4146C12.0008 15.4316 11.9623 15.4485 11.9237 15.4656C11.905 15.4692 11.8876 15.476 11.873 15.4875C11.5252 15.6486 11.3812 15.8076 11.3228 15.9189C11.2645 16.0295 11.3148 16.143 11.386 16.202C11.4081 16.2201 11.4363 16.2295 11.4645 16.2295C11.4839 16.2295 11.5033 16.2252 11.5209 16.2163C11.5642 16.1947 11.5932 16.149 11.5913 16.1009C11.5963 16.0954 11.6176 16.0777 11.6844 16.0755C11.7331 16.0714 11.8356 16.0824 11.9552 16.092C12.0691 16.1014 12.2056 16.112 12.3507 16.1195C12.2599 16.2253 12.1544 16.348 12.1544 16.348C12.1227 16.3849 12.1157 16.437 12.1368 16.4809C12.158 16.5249 12.2036 16.5523 12.2515 16.5505C12.3484 16.5471 12.4142 16.5452 12.4574 16.5443C12.4951 16.5937 12.5414 16.6133 12.5712 16.6209C12.6555 16.6425 12.7396 16.6087 12.8028 16.5688C12.8507 16.6033 12.8987 16.6178 12.9366 16.6234C13.0222 16.6351 13.1015 16.6102 13.1588 16.5819C13.2182 16.6203 13.2764 16.6301 13.3207 16.6301C13.3213 16.6301 13.322 16.6301 13.3227 16.6301C13.4184 16.6296 13.5021 16.5834 13.5613 16.5381C13.6137 16.5692 13.6637 16.5793 13.7024 16.581C13.7902 16.5841 13.8629 16.5503 13.9113 16.5187C14.0841 16.5534 14.233 16.472 14.3314 16.3822C14.3763 16.4083 14.419 16.4148 14.4531 16.4131C14.5406 16.41 14.6072 16.3568 14.65 16.3092C14.8459 16.3328 14.9865 16.2967 15.0677 16.2002C15.112 16.1478 15.13 16.0887 15.1349 16.0348C15.6784 16.0317 15.7275 15.7349 15.7315 15.6983C15.7351 15.665 15.725 15.6317 15.7033 15.6061C15.6818 15.5805 15.6505 15.5647 15.6171 15.5628L14.1923 15.4771C14.1327 15.4728 14.0795 15.5128 14.0656 15.571C14.0654 15.5719 14.0411 15.6624 13.9651 15.7348C13.8628 15.8324 13.6981 15.884 13.519 15.9113C13.5197 15.8949 13.5174 15.8782 13.5111 15.8619C13.4867 15.7987 13.4156 15.768 13.3526 15.7918C13.0584 15.9059 12.5822 15.8916 12.2096 15.8657C12.2668 15.819 12.3356 15.7727 12.3906 15.7425C12.437 15.7169 12.462 15.6645 12.4521 15.6123C12.445 15.5744 12.4176 15.548 12.3845 15.531C12.4881 15.4787 12.573 15.4282 12.6536 15.3791C12.7935 15.2934 12.9256 15.2126 13.1663 15.1291C13.6308 14.9677 14.1684 14.9186 14.1738 14.9181C14.186 14.9171 14.198 14.914 14.2093 14.9095C14.2284 14.9016 15.7448 14.2663 16.4593 12.8005C16.4499 12.8448 16.4399 12.8853 16.4289 12.9207C16.4103 12.9811 16.4404 13.0455 16.4986 13.0699C16.5436 13.0888 16.5947 13.079 16.6294 13.0469C16.5842 13.1659 16.5434 13.2595 16.5101 13.3148C16.4761 13.3711 16.4925 13.4442 16.5472 13.4805C16.56 13.4889 16.5738 13.4946 16.5879 13.498C16.5326 13.579 16.4765 13.6556 16.4206 13.7257C16.3834 13.7724 16.3855 13.839 16.4244 13.8831C16.3284 13.9836 16.2433 14.0665 16.1786 14.1192C16.1364 14.1534 16.1226 14.2107 16.142 14.2596C16.0796 14.2952 16.0284 14.3204 15.9929 14.3311C15.9332 14.3491 15.8966 14.4092 15.9079 14.4705C15.9137 14.5028 15.9319 14.5301 15.957 14.5481C15.8821 14.5682 15.8001 14.5876 15.711 14.6053C15.6608 14.6153 15.6221 14.6553 15.6139 14.7058C15.6058 14.7563 15.6298 14.8066 15.6741 14.832C15.678 14.8341 15.7198 14.8579 15.7839 14.8851C15.5468 14.9807 15.1233 15.1055 14.4284 15.1739C14.3611 15.1806 14.3117 15.2408 14.3184 15.3081C14.325 15.3754 14.3832 15.4221 14.4526 15.4182C15.7717 15.2877 16.179 14.9575 16.1957 14.9434C16.2338 14.9115 16.2488 14.8596 16.2338 14.8122C16.2237 14.7808 16.2017 14.7554 16.1734 14.7408C16.5948 14.6081 16.7758 14.4613 16.7852 14.4534C16.8315 14.4151 16.8431 14.3488 16.8127 14.2968C16.782 14.2448 16.7182 14.2223 16.6625 14.2448C16.6469 14.2508 16.6218 14.257 16.5902 14.2633C16.873 14.0696 17.1733 13.8389 17.3053 13.736C17.3285 13.7188 17.3496 13.7022 17.3682 13.6866C17.4194 13.6435 17.4266 13.5673 17.3843 13.5154C17.3423 13.4637 17.2657 13.455 17.2133 13.4965C17.1942 13.5116 17.1742 13.5271 17.1537 13.5432C17.0927 13.5884 17.0148 13.6397 16.9297 13.6923C17.2507 13.3279 17.5739 12.9328 17.6662 12.8193C17.6746 12.809 17.6828 12.7987 17.6912 12.7884C17.7336 12.7357 17.7254 12.6586 17.6727 12.6162C17.6198 12.5731 17.5426 12.582 17.5004 12.6344L17.5001 12.6347L17.5 12.635C17.4977 12.6376 17.4873 12.6505 17.4698 12.6721C17.3731 12.7901 17.2713 12.9044 17.1709 13.0111C17.4979 12.4185 17.7455 11.8351 17.7817 11.7487C17.7831 11.7456 17.7843 11.7425 17.7856 11.7393C17.8116 11.6773 17.782 11.6054 17.7195 11.5796ZM11.9731 15.7124L12.0066 15.7168C11.9655 15.7551 11.9321 15.7982 11.9056 15.8426C11.8473 15.8379 11.7945 15.8338 11.7531 15.832C11.8102 15.7947 11.8836 15.7543 11.9731 15.7124Z" fill="#FFE15A"/>
</g>
<defs>
<clipPath id="clip0_1721_3294">
<rect width="24" height="24" fill="white"/>
</clipPath>
</defs>
</svg>
