<svg width="24" height="24" viewBox="0 0 24 24" fill="none" xmlns="http://www.w3.org/2000/svg">
<g clip-path="url(#clip0_1721_3348)">
<path d="M16 4.13867H23.5862C23.8147 4.13867 24 4.32397 24 4.55248V19.449C24 19.6775 23.8147 19.8628 23.5862 19.8628H16V4.13867Z" fill="#FF4B55"/>
<path d="M16.0011 4.13867H8.00098V19.8629H16.0011V4.13867Z" fill="#FFE15A"/>
<path d="M0.413812 4.13867H8.00001V19.8628H0.413812C0.185297 19.8628 0 19.6775 0 19.449V4.55244C0 4.32392 0.185297 4.13867 0.413812 4.13867Z" fill="#41479B"/>
<path d="M13.467 14.8358L13.6729 14.668L12.7348 13.5175L12.529 13.6854L13.467 14.8358Z" fill="#FFCD5A"/>
<path d="M12.8383 14.2768L13.25 13.9414L12.8374 13.4349L12.4257 13.7703L12.8383 14.2768Z" fill="#FFBE5A"/>
<path d="M11.5877 13.6854L11.3818 13.5176L10.4438 14.668L10.6497 14.8358L11.5877 13.6854Z" fill="#FFCD5A"/>
<path d="M11.69 13.769L11.2783 13.4336L10.8657 13.9401L11.2774 14.2755L11.69 13.769Z" fill="#FFBE5A"/>
<path d="M11.7254 13.9492L11.0615 15.277L11.991 15.9409V14.082L11.7254 13.9492Z" fill="#FFE15A"/>
<path d="M12.2568 13.9492L12.9207 15.277L11.9912 15.9409V14.082L12.2568 13.9492Z" fill="#FFCD5A"/>
<path d="M10.1328 13.9484V10.4961H10.5312C10.5312 10.4961 10.5312 12.7534 10.5312 13.1517C10.5312 13.5501 10.1328 13.9484 10.1328 13.9484Z" fill="#FFBE5A"/>
<path d="M9.86621 14.6124V10.4961H10.2646C10.2646 10.4961 10.2646 13.4173 10.2646 13.8156C10.2645 14.214 9.86621 14.6124 9.86621 14.6124Z" fill="#FFCD5A"/>
<path d="M9.60156 15.1435V10.4961H9.99991C9.99991 10.4961 9.99991 13.9484 9.99991 14.3468C9.99991 14.7451 9.60156 15.1435 9.60156 15.1435Z" fill="#FFE15A"/>
<path d="M10.5303 10.6289C10.5303 10.6289 10.5303 12.521 10.5303 13.1518C10.5303 13.8157 11.4929 13.7272 11.9909 14.214C12.4888 13.7271 13.4514 13.8157 13.4514 13.1518C13.4514 12.5211 13.4514 10.6289 13.4514 10.6289H10.5303Z" fill="#FF4B55"/>
<path d="M10.5303 12.0899C10.5303 12.5103 10.5303 12.9181 10.5303 13.1522C10.5303 13.8161 11.4929 13.7276 11.9909 14.2144C12.4888 13.7275 13.4514 13.8161 13.4514 13.1521C13.4514 12.9181 13.4514 12.5102 13.4514 12.0898L10.5303 12.0899Z" fill="#41479B"/>
<path d="M11.991 13.8179L11.5927 13.5523V13.4195L11.7255 13.2868V12.49L11.3271 12.2245L11.7255 11.6934H11.8582L11.991 11.8262L12.1238 11.6934H12.2566L12.655 12.2245L12.2566 12.49V13.2868L12.3894 13.4195V13.5523L11.991 13.8179Z" fill="#FFE15A"/>
<path d="M11.4598 10.7637C11.4598 10.7637 10.9287 10.8965 10.9287 11.4276C10.9287 11.9587 11.4598 12.2243 11.4598 12.2243L11.7254 11.826C10.9287 11.5604 11.4598 10.7637 11.4598 10.7637Z" fill="#FFE15A"/>
<path d="M12.5224 10.7637C12.5224 10.7637 13.0535 10.8965 13.0535 11.4276C13.0535 11.9587 12.5224 12.2243 12.5224 12.2243L12.2568 11.826C13.0535 11.5604 12.5224 10.7637 12.5224 10.7637Z" fill="#FFE15A"/>
<path d="M10.6631 12.0918L10.9286 12.2245L11.1942 12.0918L10.9286 11.959L10.6631 12.0918Z" fill="#FFE15A"/>
<path d="M12.7881 12.0918L13.0536 12.2245L13.3192 12.0918L13.0536 11.959L12.7881 12.0918Z" fill="#FFE15A"/>
<path d="M11.9911 10.8301L12.0877 10.929L12.2258 10.9273L12.2242 11.0655L12.3231 11.162L12.2242 11.2586L12.2258 11.3968L12.0877 11.3951L11.9911 11.494L11.8946 11.3951L11.7564 11.3968L11.758 11.2586L11.6592 11.162L11.758 11.0655L11.7564 10.9273L11.8946 10.929L11.9911 10.8301Z" fill="#FFE15A"/>
<path d="M11.0897 12.6707L11.1854 12.7772L11.3185 12.7244C11.3875 12.6971 11.4522 12.772 11.4151 12.8362L11.3434 12.9602L11.4347 13.0706C11.482 13.1277 11.4307 13.2124 11.3582 13.1969L11.2181 13.167L11.1414 13.288C11.1017 13.3506 11.0053 13.328 10.9976 13.2542L10.9827 13.1118L10.844 13.0762C10.7721 13.0578 10.7639 12.9591 10.8316 12.929L10.9625 12.8709L10.9534 12.728C10.9489 12.6538 11.0401 12.6155 11.0897 12.6707Z" fill="#FFE15A"/>
<path d="M12.858 12.9727C12.8873 12.8217 13.0119 12.7148 13.1571 12.6986C13.1273 12.6826 13.0956 12.6693 13.0607 12.6626C12.8747 12.6265 12.6947 12.7481 12.6587 12.934C12.6226 13.12 12.7441 13.3 12.9301 13.3361C12.9651 13.3429 12.9995 13.3425 13.033 13.3387C12.9043 13.2695 12.8287 13.1237 12.858 12.9727Z" fill="#FFE15A"/>
<path d="M11.4599 10.6304L11.7254 9.30261L11.1943 8.90427L11.3271 8.77147H11.5927C11.5927 8.77147 11.7255 8.63867 11.991 8.63867C12.2566 8.63867 12.5221 8.77147 12.5221 9.16977C12.5221 9.56806 12.6549 10.6303 12.6549 10.6303H11.4599V10.6304Z" fill="#FFE15A"/>
<path d="M10.5311 10.0977C10.2378 10.0977 10 10.3355 10 10.6287H11.0623C11.0622 10.3355 10.8244 10.0977 10.5311 10.0977Z" fill="#FFAA5A"/>
<path d="M10.3983 10.6306H9.60156V9.74675C9.60156 9.57486 9.74092 9.43555 9.91277 9.43555H10.087C10.2589 9.43555 10.3983 9.57491 10.3983 9.74675V10.6306Z" fill="#FFBE5A"/>
<path d="M13.8505 13.9504V10.498H13.4521C13.4521 10.498 13.4521 12.7554 13.4521 13.1537C13.4521 13.552 13.8505 13.9504 13.8505 13.9504Z" fill="#FFBE5A"/>
<path d="M14.1161 14.6124V10.4961H13.7178C13.7178 10.4961 13.7178 13.4173 13.7178 13.8156C13.7178 14.214 14.1161 14.6124 14.1161 14.6124Z" fill="#FFCD5A"/>
<path d="M14.3817 15.1435V10.4961H13.9834C13.9834 10.4961 13.9834 13.9484 13.9834 14.3468C13.9834 14.7451 14.3817 15.1435 14.3817 15.1435Z" fill="#FFE15A"/>
<path d="M13.4521 10.0977C13.7454 10.0977 13.9832 10.3355 13.9832 10.6287H12.9209C12.9209 10.3355 13.1587 10.0977 13.4521 10.0977Z" fill="#FFAA5A"/>
<path d="M13.585 10.6306H14.3816V9.74675C14.3816 9.57486 14.2423 9.43555 14.0704 9.43555H13.8962C13.7243 9.43555 13.585 9.57491 13.585 9.74675L13.585 10.6306Z" fill="#FFBE5A"/>
<path d="M15.1223 12.1427L14.9521 12.0391L13.0927 15.0926L13.2628 15.1962L15.1223 12.1427Z" fill="#FFAA5A"/>
<path d="M13.5004 15.0203L13.832 14.6055L13.5076 14.3461L13.176 14.761L13.5004 15.0203Z" fill="#FFE15A"/>
<path d="M15.1771 12.1765L14.8936 12.0039L14.4952 12.6583L14.7788 12.8309L15.1771 12.1765Z" fill="#FFCD5A"/>
<path d="M10.9807 15.0887L9.10645 12.1895L8.99492 12.2615L10.8692 15.1608L10.9807 15.0887Z" fill="#73AF00"/>
<path d="M10.2858 13.5645C10.2382 13.6185 10.2066 13.7003 10.1986 13.7947C10.1331 13.7287 10.0579 13.6866 9.98791 13.6753C9.96945 13.7438 9.97695 13.8296 10.0104 13.9164C9.92098 13.8849 9.83341 13.8801 9.76465 13.9014C9.78401 13.9993 9.86374 14.1055 9.98595 14.1784C10.1081 14.2513 10.2395 14.271 10.3348 14.2416L10.3621 14.2239C10.428 14.1491 10.464 14.0213 10.4477 13.8799C10.4312 13.7386 10.367 13.6223 10.2858 13.5645Z" fill="#73AF00"/>
<path d="M10.3486 14.3672C10.422 14.3672 10.4814 14.3077 10.4814 14.2344C10.4814 14.161 10.422 14.1016 10.3486 14.1016C10.2753 14.1016 10.2158 14.161 10.2158 14.2344C10.2158 14.3077 10.2753 14.3672 10.3486 14.3672Z" fill="#FF4B55"/>
<path d="M9.78092 12.7852C9.7333 12.8392 9.7017 12.921 9.69373 13.0155C9.62825 12.9494 9.55306 12.9073 9.48303 12.896C9.46456 12.9645 9.47206 13.0503 9.50548 13.1371C9.41609 13.1056 9.32853 13.1008 9.25977 13.1221C9.27913 13.22 9.35886 13.3262 9.48106 13.3991C9.60322 13.472 9.73461 13.4917 9.82991 13.4623L9.85719 13.4446C9.92314 13.3698 9.95909 13.242 9.94278 13.1006C9.92638 12.9593 9.8622 12.843 9.78092 12.7852Z" fill="#73AF00"/>
<path d="M9.84373 13.5859C9.91708 13.5859 9.97653 13.5265 9.97653 13.4531C9.97653 13.3798 9.91708 13.3203 9.84373 13.3203C9.77039 13.3203 9.71094 13.3798 9.71094 13.4531C9.71094 13.5265 9.77039 13.5859 9.84373 13.5859Z" fill="#FF4B55"/>
<path d="M9.27604 12.0039C9.22841 12.0579 9.19682 12.1398 9.18885 12.2342C9.12337 12.1681 9.04818 12.126 8.97815 12.1147C8.95968 12.1832 8.96718 12.2691 9.0006 12.3559C8.91121 12.3244 8.82365 12.3196 8.75488 12.3408C8.77424 12.4387 8.85398 12.5449 8.97618 12.6178C9.09834 12.6908 9.22973 12.7105 9.32502 12.681L9.35231 12.6634C9.41826 12.5885 9.45421 12.4607 9.4379 12.3194C9.4214 12.178 9.35727 12.0617 9.27604 12.0039Z" fill="#73AF00"/>
<path d="M9.33885 12.8047C9.41219 12.8047 9.47165 12.7452 9.47165 12.6719C9.47165 12.5985 9.41219 12.5391 9.33885 12.5391C9.26551 12.5391 9.20605 12.5985 9.20605 12.6719C9.20605 12.7452 9.26551 12.8047 9.33885 12.8047Z" fill="#FF4B55"/>
<path d="M10.9391 14.7606L10.6074 14.3457L10.283 14.6051L10.6146 15.0199L10.9391 14.7606Z" fill="#FFE15A"/>
<path d="M11.3275 8.37305H11.1943V9.30253H11.3275V8.37305Z" fill="#FFE15A"/>
<path d="M11.4599 8.50586H11.0615V8.63866H11.4599V8.50586Z" fill="#FFE15A"/>
<path d="M11.1943 8.90423L11.5927 9.20301V8.77148H11.3271L11.1943 8.90423Z" fill="#FF875A"/>
<path d="M11.3273 8.373V8.5058H11.4601V8.63859H11.3273V8.77139H11.5928C11.5928 8.77139 11.7256 8.63859 11.9912 8.63859C12.2567 8.63859 12.5223 8.77139 12.5223 9.16969C12.5223 9.56803 12.6551 10.6303 12.6551 10.6303H12.9206C12.9206 10.3369 13.1584 10.0992 13.4517 10.0992C13.4978 10.0992 13.5418 10.1069 13.5845 10.118V9.83363C13.5845 9.61364 13.7629 9.43528 13.9829 9.43528C14.2028 9.43528 14.3812 9.61364 14.3812 9.83363V10.4976V10.6304V12.9753L14.5527 12.6937L14.496 12.6592L14.8943 12.0047L14.951 12.0392L15.0361 12.091L15.1779 12.1773L14.7796 12.8318L14.7228 12.7973L14.3812 13.3586V15.1451C14.3812 15.1451 14.0641 14.8272 13.9963 14.4754C13.9478 14.4131 13.8919 14.3336 13.8427 14.2433L13.6907 14.493L13.832 14.6059L13.5004 15.0208L13.4123 14.9504L13.2622 15.197L13.0921 15.0934L13.2555 14.825L13.1761 14.7615L13.2891 14.6202L12.9406 14.1929L12.8377 14.2768L12.5279 13.8967C12.4454 13.9298 12.3639 13.9662 12.2855 14.0078L12.9205 15.2779L11.991 15.9419L11.0615 15.2779L11.6965 14.0078C11.6497 13.983 11.602 13.9594 11.5533 13.9379L11.2772 14.2768L11.1742 14.1929L10.8258 14.6202L10.9387 14.7615L10.8259 14.8517L10.9801 15.0901L10.8685 15.1622L10.7217 14.935L10.6145 15.0207L10.2828 14.6058L10.4318 14.4867L10.3529 14.3645C10.351 14.3646 10.3492 14.3646 10.3473 14.3646C10.3039 14.3646 10.2614 14.3452 10.2361 14.3061C10.2253 14.2895 10.2195 14.2713 10.2169 14.2529C10.1919 14.2514 10.1666 14.2478 10.1403 14.2416C10.0909 14.3325 10.0347 14.4127 9.98588 14.4754C9.91805 14.8272 9.60094 15.1451 9.60094 15.1451V13.4513C9.56082 13.4387 9.52037 13.4227 9.48057 13.3989C9.35841 13.326 9.27863 13.2197 9.25927 13.1219C9.28721 13.1133 9.31819 13.109 9.35119 13.109C9.39947 13.109 9.45197 13.1183 9.50504 13.137C9.48774 13.092 9.47766 13.0474 9.47433 13.0052L9.34374 12.8032C9.34187 12.8032 9.34004 12.8033 9.33816 12.8033C9.29476 12.8033 9.25224 12.7839 9.22698 12.7448C9.21619 12.7282 9.21038 12.71 9.20776 12.6916C9.13426 12.6872 9.05372 12.6647 8.97605 12.6184C8.8539 12.5454 8.77412 12.4392 8.75476 12.3414C8.78269 12.3328 8.81373 12.3285 8.84668 12.3285C8.89496 12.3285 8.94746 12.3377 9.00052 12.3564C8.9671 12.2696 8.9596 12.1837 8.97807 12.1153C9.0481 12.1266 9.12329 12.1687 9.18877 12.2347C9.19674 12.1403 9.22833 12.0585 9.27591 12.0045C9.35719 12.0623 9.42132 12.1786 9.43763 12.32C9.44804 12.4099 9.43547 12.4925 9.40927 12.5614C9.42497 12.5714 9.43918 12.5841 9.44991 12.6007C9.4763 12.6416 9.47537 12.6907 9.45521 12.7312L9.5858 12.9332C9.59087 12.936 9.59583 12.9394 9.6009 12.9426V10.6305V10.4977V9.83377C9.6009 9.61378 9.77926 9.43542 9.99924 9.43542C10.2192 9.43542 10.3976 9.61378 10.3976 9.83377V10.1181C10.4402 10.107 10.4842 10.0993 10.5304 10.0993C10.8237 10.0993 11.0615 10.3371 11.0615 10.6304H11.4598L11.7254 9.30258L11.5926 9.20302L11.327 9.00384V9.30263H11.1942V8.63869H11.0614V8.50589H11.1942V8.37309H11.3275L11.3273 8.373ZM13.4588 14.4078L13.5078 14.3465L13.5339 14.3673L13.748 14.0157C13.7293 13.9507 13.7174 13.884 13.7174 13.8171C13.7174 13.8106 13.7174 13.8016 13.7174 13.7938C13.6015 13.6413 13.4518 13.3974 13.4518 13.1532C13.4518 13.4328 13.2802 13.5785 13.0452 13.6905L13.2496 13.9413L13.1467 14.0251L13.4588 14.4078ZM10.5364 14.4031L10.6073 14.3464L10.6564 14.4078L10.9685 14.025L10.8656 13.9411L11.0346 13.7338C10.7509 13.6153 10.5306 13.4702 10.5306 13.1531C10.5306 13.3309 10.4512 13.5083 10.3634 13.6507C10.4051 13.712 10.4365 13.7902 10.447 13.8809C10.4574 13.9708 10.4449 14.0535 10.4187 14.1223C10.4344 14.1323 10.4486 14.145 10.4593 14.1617C10.4857 14.2025 10.4848 14.2515 10.4646 14.2921L10.5364 14.4031ZM11.3273 8.27344H11.1945C11.1395 8.27344 11.0949 8.31802 11.0949 8.373V8.40619H11.0618C11.0068 8.40619 10.9622 8.45077 10.9622 8.50575V8.63855C10.9622 8.69353 11.0068 8.73811 11.0618 8.73811H11.0949V9.30244C11.0949 9.35742 11.1395 9.402 11.1945 9.402H11.3273C11.3823 9.402 11.4269 9.35742 11.4269 9.30244V9.20287L11.5331 9.28252L11.6156 9.34444L11.3783 10.5307H11.1534C11.1055 10.23 10.8444 9.99956 10.5305 9.99956C10.5195 9.99956 10.5085 9.99994 10.4973 10.0006V9.83358C10.4973 9.55903 10.2739 9.33562 9.99938 9.33562C9.72483 9.33562 9.50143 9.55903 9.50143 9.83358V10.4975V10.6303V12.1574C9.46548 12.0583 9.40702 11.9753 9.33376 11.9231C9.31632 11.9107 9.29612 11.9047 9.2761 11.9047C9.2484 11.9047 9.22093 11.9162 9.20138 11.9384C9.17073 11.9732 9.14551 12.0156 9.12671 12.0634C9.08312 12.0398 9.03826 12.0238 8.99401 12.0167C8.98866 12.0158 8.98337 12.0154 8.97812 12.0154C8.93382 12.0154 8.89398 12.045 8.88207 12.089C8.8704 12.1322 8.86651 12.1797 8.87016 12.2291C8.86233 12.2287 8.85455 12.2286 8.84682 12.2286C8.80369 12.2286 8.76287 12.2344 8.72551 12.246C8.6768 12.261 8.64732 12.3104 8.65716 12.3604C8.68294 12.4905 8.78307 12.6189 8.9251 12.7036C8.99063 12.7427 9.06179 12.7695 9.13402 12.7826C9.13693 12.7881 9.14007 12.7934 9.14344 12.7986C9.17612 12.8492 9.2274 12.884 9.28604 12.897L9.3586 13.0092C9.35616 13.0092 9.35377 13.0092 9.35138 13.0092C9.30826 13.0092 9.26743 13.015 9.23007 13.0266C9.18137 13.0416 9.15188 13.091 9.16172 13.141C9.18751 13.2712 9.28763 13.3995 9.42966 13.4842C9.45235 13.4977 9.47597 13.5097 9.50147 13.5206V15.1447C9.50147 15.185 9.5258 15.2213 9.56302 15.2367C9.57535 15.2418 9.58824 15.2443 9.60104 15.2443C9.62701 15.2443 9.65251 15.2341 9.67158 15.215C9.68513 15.2014 9.99746 14.8849 10.0789 14.5175C10.1123 14.4735 10.1433 14.4291 10.1714 14.3847C10.2035 14.4217 10.2468 14.4472 10.2953 14.458L10.2996 14.4646L10.221 14.5275C10.2003 14.544 10.1871 14.568 10.1842 14.5943C10.1812 14.6205 10.1888 14.6469 10.2053 14.6676L10.537 15.0825C10.5535 15.1031 10.5775 15.1163 10.6038 15.1192C10.6074 15.1197 10.6111 15.1199 10.6148 15.1199C10.6373 15.1199 10.6592 15.1123 10.677 15.0981L10.6981 15.0811L10.7852 15.2158C10.7995 15.238 10.8221 15.2536 10.8479 15.2591C10.8548 15.2606 10.8618 15.2613 10.8688 15.2613C10.8878 15.2613 10.9067 15.2559 10.9229 15.2453L10.9873 15.2037L10.9727 15.2329C10.9508 15.2767 10.964 15.33 11.0039 15.3585L11.9333 16.0224C11.9507 16.0348 11.9709 16.041 11.9912 16.041C12.0115 16.041 12.0318 16.0348 12.0491 16.0224L12.9786 15.3585C13.0185 15.33 13.0317 15.2768 13.0098 15.2329L12.4193 14.0519C12.4443 14.0401 12.4704 14.0284 12.4978 14.0166L12.7607 14.3392C12.7804 14.3634 12.8091 14.3759 12.838 14.3759C12.8601 14.3759 12.8824 14.3685 12.9008 14.3535L12.9267 14.3325L13.1613 14.6203L13.0986 14.6988C13.0821 14.7194 13.0745 14.7457 13.0774 14.772C13.0804 14.7983 13.0936 14.8223 13.1142 14.8388L13.1251 14.8475L13.0073 15.041C12.9787 15.088 12.9936 15.1492 13.0405 15.1778L13.2106 15.2814C13.2263 15.291 13.2443 15.296 13.2625 15.296C13.2704 15.296 13.2783 15.295 13.286 15.2931C13.3117 15.2868 13.3338 15.2707 13.3476 15.2481L13.4388 15.0982C13.4572 15.1126 13.4789 15.1197 13.5006 15.1197C13.5298 15.1197 13.5588 15.1068 13.5785 15.0823L13.9101 14.6674C13.9223 14.6521 13.9293 14.6343 13.9313 14.6163C14.0395 14.9399 14.2987 15.2025 14.311 15.2148C14.33 15.2339 14.3556 15.2441 14.3815 15.2441C14.3944 15.2441 14.4072 15.2416 14.4196 15.2366C14.4568 15.2212 14.4811 15.1849 14.4811 15.1446V13.386L14.7594 12.9288C14.7662 12.9302 14.773 12.9309 14.7798 12.9309C14.8134 12.9309 14.8462 12.9139 14.865 12.8831L15.2633 12.2286C15.2771 12.2061 15.2813 12.179 15.275 12.1533C15.2687 12.1276 15.2525 12.1055 15.23 12.0917L15.0882 12.0054L15.0031 11.9536L14.9463 11.9191C14.9302 11.9092 14.9123 11.9046 14.8947 11.9046C14.8611 11.9046 14.8283 11.9216 14.8096 11.9525L14.4811 12.4921V10.63V10.4972V9.83348C14.4811 9.55894 14.2577 9.33553 13.9832 9.33553C13.7086 9.33553 13.4852 9.55894 13.4852 9.83348V10.0005C13.4741 9.99984 13.4631 9.99947 13.4521 9.99947C13.1381 9.99947 12.8771 10.23 12.8292 10.5306H12.7435C12.7121 10.2691 12.6221 9.4912 12.6221 9.16955C12.6221 8.70455 12.2963 8.53884 11.9914 8.53884C11.7656 8.53884 11.6199 8.62491 11.5575 8.67164H11.5542C11.5578 8.66123 11.5598 8.65008 11.5598 8.63845V8.50566C11.5598 8.45067 11.5153 8.40609 11.4603 8.40609H11.4271V8.37291C11.4269 8.31802 11.3823 8.27344 11.3273 8.27344ZM10.4792 13.6506C10.5047 13.6057 10.527 13.5615 10.5461 13.5179C10.6291 13.6293 10.7485 13.7085 10.8757 13.7713L10.7885 13.8783C10.7718 13.8988 10.7639 13.925 10.7666 13.9513C10.7693 13.9776 10.7822 14.0017 10.8027 14.0184L10.8283 14.0393L10.6509 14.2569C10.6408 14.2519 10.6298 14.2487 10.6183 14.2474C10.6147 14.247 10.6109 14.2468 10.6073 14.2468C10.5974 14.2468 10.5876 14.2483 10.5782 14.2512C10.5827 14.2011 10.5709 14.1509 10.543 14.1076C10.5396 14.1024 10.536 14.0973 10.5322 14.0925C10.5499 14.0212 10.5547 13.9454 10.546 13.8695C10.537 13.7917 10.5142 13.7171 10.4792 13.6506ZM13.1993 13.722C13.2871 13.6709 13.3722 13.6061 13.4368 13.519C13.4877 13.6351 13.5545 13.7407 13.6178 13.827C13.6186 13.8824 13.6262 13.9395 13.6408 14.0001L13.4896 14.2485C13.4809 14.2501 13.4723 14.2529 13.4642 14.2569L13.2868 14.0393L13.3124 14.0184C13.3328 14.0017 13.3458 13.9776 13.3485 13.9513C13.3512 13.9251 13.3433 13.8988 13.3266 13.8783L13.1993 13.722ZM11.2773 14.3762C11.3063 14.3762 11.3349 14.3637 11.3546 14.3395L11.5226 14.1335L11.068 15.0426C11.0668 15.0403 11.0655 15.038 11.064 15.0358L10.9588 14.873L11.0012 14.839C11.0219 14.8225 11.0351 14.7985 11.038 14.7722C11.041 14.746 11.0333 14.7196 11.0168 14.6991L10.9541 14.6206L11.1888 14.3327L11.2146 14.3537C11.2329 14.3689 11.2552 14.3762 11.2773 14.3762ZM13.8214 14.4696L13.8431 14.434C13.8621 14.462 13.8823 14.49 13.9035 14.5178C13.9053 14.5262 13.9073 14.5345 13.9094 14.5428C13.905 14.5374 13.8999 14.5324 13.8943 14.5278L13.8214 14.4696Z" fill="#FFAA5A"/>
</g>
<defs>
<clipPath id="clip0_1721_3348">
<rect width="24" height="24" fill="white"/>
</clipPath>
</defs>
</svg>
